<svg width="17" height="17" viewBox="0 0 17 17" fill="none" xmlns="http://www.w3.org/2000/svg">
<g clip-path="url(#clip0_302_322)">
<rect x="0.171631" y="7.46352" width="9.3657" height="9.3657" fill="#7595FD"/>
<path d="M4.42627 13.3372L4.59351 14.8223L5.67726 13.7921L7.53033 8.70784C7.07542 8.59411 6.67404 8.36666 6.34624 8.05224L4.42627 13.3372ZM10.0524 8.05224C9.72458 8.36666 9.3165 8.59411 8.86829 8.70784L10.7214 13.7921L11.8051 14.8223L11.979 13.3372L10.0524 8.05224V8.05224ZM10.1661 6.52697C10.3668 5.48337 9.76472 4.56018 8.86829 4.23907V3.44967C8.86829 3.08173 8.56725 2.78069 8.19931 2.78069C7.83137 2.78069 7.53033 3.08173 7.53033 3.44967V4.23907C6.75431 4.52004 6.19237 5.25591 6.19237 6.12558C6.19237 7.3565 7.30288 8.33321 8.57394 8.09907C9.36333 7.9519 10.0122 7.31637 10.1661 6.52697V6.52697ZM8.19931 6.79456C7.83137 6.79456 7.53033 6.49352 7.53033 6.12558C7.53033 5.75765 7.83137 5.45661 8.19931 5.45661C8.56725 5.45661 8.86829 5.75765 8.86829 6.12558C8.86829 6.49352 8.56725 6.79456 8.19931 6.79456Z" fill="#292E3D"/>
</g>
<defs>
<clipPath id="clip0_302_322">
<rect width="16.0555" height="16.0555" fill="white" transform="translate(0.171631 0.773758)"/>
</clipPath>
</defs>
</svg>
