<svg width="17" height="17" viewBox="0 0 17 17" fill="none" xmlns="http://www.w3.org/2000/svg">
<g clip-path="url(#clip0_302_310)">
<rect x="0.0827637" y="7.5459" width="9.3657" height="9.3657" fill="#7595FD"/>
<path d="M7.44141 4.86998H9.44835L11.6493 2.66235C11.7115 2.59965 11.7855 2.54988 11.867 2.51592C11.9485 2.48196 12.0359 2.46447 12.1243 2.46447C12.2126 2.46447 12.3 2.48196 12.3815 2.51592C12.4631 2.54988 12.537 2.59965 12.5992 2.66235L14.3252 4.39501C14.4498 4.52035 14.5197 4.6899 14.5197 4.86664C14.5197 5.04337 14.4498 5.21293 14.3252 5.33827L12.7932 6.87692H7.44141V8.21488C7.44141 8.3923 7.37093 8.56246 7.24547 8.68791C7.12002 8.81337 6.94986 8.88385 6.77243 8.88385C6.59501 8.88385 6.42485 8.81337 6.2994 8.68791C6.17394 8.56246 6.10346 8.3923 6.10346 8.21488V6.20794C6.10346 5.85309 6.24442 5.51278 6.49534 5.26186C6.74625 5.01095 7.08656 4.86998 7.44141 4.86998ZM3.42754 8.21488V10.8908L1.89558 12.4227C1.77099 12.5481 1.70105 12.7176 1.70105 12.8944C1.70105 13.0711 1.77099 13.2407 1.89558 13.366L3.62155 15.0987C3.68374 15.1614 3.75773 15.2111 3.83925 15.2451C3.92077 15.2791 4.00821 15.2965 4.09652 15.2965C4.18484 15.2965 4.27227 15.2791 4.3538 15.2451C4.43532 15.2111 4.50931 15.1614 4.5715 15.0987L7.44141 12.2287H10.1173C10.2947 12.2287 10.4649 12.1583 10.5904 12.0328C10.7158 11.9073 10.7863 11.7372 10.7863 11.5598V10.8908H11.4553C11.6327 10.8908 11.8029 10.8203 11.9283 10.6948C12.0538 10.5694 12.1243 10.3992 12.1243 10.2218V9.55283H12.7932C12.9707 9.55283 13.1408 9.48235 13.2663 9.35689C13.3917 9.23143 13.4622 9.06128 13.4622 8.88385V8.21488H8.77937V8.88385C8.77937 9.2387 8.63841 9.57902 8.38749 9.82993C8.13658 10.0808 7.79626 10.2218 7.44141 10.2218H6.10346C5.74861 10.2218 5.40829 10.0808 5.15738 9.82993C4.90646 9.57902 4.7655 9.2387 4.7655 8.88385V6.87692L3.42754 8.21488Z" fill="#292E3D"/>
</g>
<defs>
<clipPath id="clip0_302_310">
<rect width="16.0555" height="16.0555" fill="white" transform="translate(0.0827637 0.856132)"/>
</clipPath>
</defs>
</svg>
