<svg width="17" height="17" viewBox="0 0 17 17" fill="none" xmlns="http://www.w3.org/2000/svg">
<g clip-path="url(#clip0_302_304)">
<rect x="0.171631" y="7.5459" width="9.3657" height="9.3657" fill="#7595FD"/>
<path d="M13.2167 2.86308C12.7733 2.86344 12.3481 3.03976 12.0345 3.35332C11.721 3.66689 11.5446 4.09208 11.5443 4.53553C11.5443 4.77435 11.5965 5.00114 11.6874 5.20785L10.3796 6.67894C9.9353 6.37226 9.40823 6.208 8.86837 6.20798C8.37333 6.20798 7.91575 6.35247 7.51771 6.58662L5.99645 5.06603L5.98106 5.08142C6.11218 4.81516 6.19246 4.5188 6.19246 4.20104C6.19246 3.80411 6.07475 3.41609 5.85423 3.08605C5.63371 2.75601 5.32027 2.49877 4.95355 2.34687C4.58683 2.19497 4.1833 2.15523 3.79399 2.23267C3.40468 2.31011 3.04708 2.50125 2.76641 2.78192C2.48573 3.0626 2.29459 3.4202 2.21715 3.80951C2.13971 4.19881 2.17946 4.60234 2.33136 4.96906C2.48326 5.33578 2.74049 5.64922 3.07053 5.86975C3.40057 6.09027 3.78859 6.20798 4.18552 6.20798C4.50329 6.20798 4.79898 6.1277 5.0659 5.99658L5.05051 6.01196L6.57177 7.53255C6.32601 7.94065 6.19497 8.40751 6.19246 8.88389C6.19246 9.55086 6.44667 10.1543 6.8514 10.6239L5.12745 12.3472C4.93422 12.2698 4.72814 12.2297 4.52001 12.2288C3.59816 12.2288 2.84757 12.9787 2.84757 13.9012C2.84757 14.8237 3.59816 15.5737 4.52001 15.5737C5.44187 15.5737 6.19246 14.8237 6.19246 13.9012C6.19246 13.6865 6.14831 13.4824 6.07405 13.2931L7.97261 11.3946C8.25425 11.4949 8.55262 11.5598 8.86837 11.5598C10.3441 11.5598 11.5443 10.3597 11.5443 8.88389C11.5443 8.45842 11.4352 8.06171 11.258 7.70381L12.6742 6.10964C12.8454 6.16851 13.0261 6.20798 13.2167 6.20798C14.1393 6.20798 14.8892 5.45805 14.8892 4.53553C14.8892 3.61301 14.1393 2.86308 13.2167 2.86308ZM8.86837 10.2218C8.13049 10.2218 7.53042 9.62177 7.53042 8.88389C7.53042 8.14601 8.13049 7.54593 8.86837 7.54593C9.60626 7.54593 10.2063 8.14601 10.2063 8.88389C10.2063 9.62177 9.60626 10.2218 8.86837 10.2218Z" fill="white"/>
</g>
<defs>
<clipPath id="clip0_302_304">
<rect width="16.0555" height="16.0555" fill="white" transform="translate(0.171631 0.856132)"/>
</clipPath>
</defs>
</svg>
