<svg width="17" height="17" viewBox="0 0 17 17" fill="none" xmlns="http://www.w3.org/2000/svg">
<g clip-path="url(#clip0_302_316)">
<rect x="0.0598145" y="7.46352" width="9.3657" height="9.3657" fill="#7595FD"/>
<path d="M12.1014 11.4774H10.7634V10.8084H5.41158V11.4774H4.07362V10.8084H1.39771V14.1533H14.7773V10.8084H12.1014V11.4774ZM13.4393 6.12557H11.4324V4.78761C11.4324 4.05173 10.8303 3.44965 10.0944 3.44965H6.08055C5.34468 3.44965 4.7426 4.05173 4.7426 4.78761V6.12557H2.73566C1.99979 6.12557 1.39771 6.72765 1.39771 7.46352V10.1394H4.07362V8.80148H5.41158V10.1394H10.7634V8.80148H12.1014V10.1394H14.7773V7.46352C14.7773 6.72765 14.1752 6.12557 13.4393 6.12557ZM10.0944 6.12557H6.08055V4.78761H10.0944V6.12557Z" fill="white"/>
</g>
<defs>
<clipPath id="clip0_302_316">
<rect width="16.0555" height="16.0555" fill="white" transform="translate(0.0598145 0.773758)"/>
</clipPath>
</defs>
</svg>
