<svg width="271" height="181" viewBox="0 0 271 181" fill="none" xmlns="http://www.w3.org/2000/svg">
<path d="M0 4C0 1.79086 1.79086 0 4 0H267C269.209 0 271 1.79086 271 4V177C271 179.209 269.209 181 267 181H4C1.79086 181 0 179.209 0 177V4Z" fill="white"/>
<g clip-path="url(#clip0_27_139)">
<rect x="115.5" y="54.6667" width="23.3333" height="23.3333" fill="#7595FD"/>
<path d="M126.1 69.3L126.517 73L129.217 70.4333L133.833 57.7667C132.7 57.4833 131.7 56.9167 130.883 56.1333L126.1 69.3ZM140.117 56.1333C139.3 56.9167 138.283 57.4833 137.167 57.7667L141.783 70.4333L144.483 73L144.917 69.3L140.117 56.1333ZM140.4 52.3333C140.9 49.7333 139.4 47.4333 137.167 46.6333V44.6667C137.167 43.75 136.417 43 135.5 43C134.583 43 133.833 43.75 133.833 44.6667V46.6333C131.9 47.3333 130.5 49.1667 130.5 51.3333C130.5 54.4 133.267 56.8333 136.433 56.25C138.4 55.8833 140.017 54.3 140.4 52.3333ZM135.5 53C134.583 53 133.833 52.25 133.833 51.3333C133.833 50.4167 134.583 49.6667 135.5 49.6667C136.417 49.6667 137.167 50.4167 137.167 51.3333C137.167 52.25 136.417 53 135.5 53Z" fill="#292E3D"/>
</g>
<rect x="105.5" y="98" width="60" height="2" fill="#E0E3EB"/>
<path d="M87.0687 138H84.2087L83.1087 134.78H78.0487L76.9487 138H74.1287L78.9487 124.8H82.2487L87.0687 138ZM78.6687 132.74H82.4887L80.5687 126.98L78.6687 132.74ZM88.7466 138V128H91.1266L91.3066 129.96C91.5733 129.267 91.96 128.733 92.4666 128.36C92.9866 127.987 93.6333 127.8 94.4066 127.8C94.6333 127.8 94.84 127.82 95.0266 127.86C95.2133 127.9 95.3666 127.953 95.4866 128.02L95.1666 130.32C95.0333 130.267 94.8666 130.227 94.6666 130.2C94.48 130.173 94.2333 130.16 93.9266 130.16C93.5266 130.16 93.14 130.26 92.7666 130.46C92.3933 130.647 92.0866 130.94 91.8466 131.34C91.6066 131.727 91.4866 132.22 91.4866 132.82V138H88.7466ZM101.529 127.8C102.422 127.8 103.175 127.933 103.789 128.2C104.415 128.453 104.915 128.807 105.289 129.26C105.675 129.7 105.949 130.193 106.109 130.74L103.549 131.66C103.415 131.06 103.189 130.607 102.869 130.3C102.549 129.993 102.115 129.84 101.569 129.84C101.062 129.84 100.629 129.96 100.269 130.2C99.9088 130.427 99.6355 130.78 99.4488 131.26C99.2622 131.727 99.1688 132.313 99.1688 133.02C99.1688 133.727 99.2622 134.313 99.4488 134.78C99.6488 135.247 99.9288 135.593 100.289 135.82C100.662 136.047 101.095 136.16 101.589 136.16C101.989 136.16 102.329 136.093 102.609 135.96C102.889 135.813 103.115 135.607 103.289 135.34C103.475 135.073 103.602 134.753 103.669 134.38L106.149 135.18C106.002 135.78 105.729 136.307 105.329 136.76C104.929 137.213 104.415 137.567 103.789 137.82C103.162 138.073 102.435 138.2 101.609 138.2C100.582 138.2 99.6755 137.993 98.8888 137.58C98.1022 137.167 97.4955 136.573 97.0688 135.8C96.6422 135.027 96.4288 134.093 96.4288 133C96.4288 131.907 96.6422 130.973 97.0688 130.2C97.4955 129.427 98.0955 128.833 98.8688 128.42C99.6422 128.007 100.529 127.8 101.529 127.8ZM108.278 138V123.62H111.018V129.7C111.338 129.06 111.778 128.587 112.338 128.28C112.898 127.96 113.531 127.8 114.238 127.8C114.931 127.8 115.545 127.933 116.078 128.2C116.625 128.467 117.051 128.873 117.358 129.42C117.678 129.953 117.838 130.627 117.838 131.44V138H115.098V132.24C115.098 131.373 114.931 130.78 114.598 130.46C114.265 130.127 113.838 129.96 113.318 129.96C112.931 129.96 112.558 130.053 112.198 130.24C111.851 130.413 111.565 130.707 111.338 131.12C111.125 131.52 111.018 132.053 111.018 132.72V138H108.278ZM122.041 126.56C121.467 126.56 121.041 126.44 120.761 126.2C120.481 125.947 120.341 125.58 120.341 125.1C120.341 124.607 120.481 124.24 120.761 124C121.041 123.747 121.467 123.62 122.041 123.62C122.614 123.62 123.041 123.747 123.321 124C123.601 124.24 123.741 124.607 123.741 125.1C123.741 125.58 123.601 125.947 123.321 126.2C123.041 126.44 122.614 126.56 122.041 126.56ZM123.401 128V138H120.661V128H123.401ZM129.845 124.94V134.74C129.845 135.22 129.965 135.573 130.205 135.8C130.459 136.013 130.799 136.12 131.225 136.12C131.559 136.12 131.852 136.073 132.105 135.98C132.359 135.873 132.585 135.733 132.785 135.56L133.225 137.38C132.905 137.633 132.505 137.833 132.025 137.98C131.545 138.127 131.039 138.2 130.505 138.2C129.839 138.2 129.245 138.1 128.725 137.9C128.219 137.7 127.819 137.38 127.525 136.94C127.245 136.5 127.105 135.913 127.105 135.18V125.7L129.845 124.94ZM133.045 128V130.04H125.265V128H133.045ZM139.539 138.2C138.486 138.2 137.566 137.993 136.779 137.58C136.006 137.167 135.406 136.573 134.979 135.8C134.552 135.027 134.339 134.093 134.339 133C134.339 131.907 134.552 130.973 134.979 130.2C135.406 129.427 135.999 128.833 136.759 128.42C137.532 128.007 138.412 127.8 139.399 127.8C140.412 127.8 141.272 128.007 141.979 128.42C142.686 128.82 143.226 129.373 143.599 130.08C143.972 130.773 144.159 131.567 144.159 132.46C144.159 132.727 144.152 132.98 144.139 133.22C144.126 133.46 144.106 133.673 144.079 133.86H136.099V131.96H142.879L141.559 132.44C141.559 131.6 141.366 130.953 140.979 130.5C140.606 130.047 140.072 129.82 139.379 129.82C138.872 129.82 138.432 129.94 138.059 130.18C137.699 130.42 137.426 130.78 137.239 131.26C137.052 131.727 136.959 132.32 136.959 133.04C136.959 133.747 137.059 134.333 137.259 134.8C137.472 135.253 137.766 135.593 138.139 135.82C138.526 136.047 138.986 136.16 139.519 136.16C140.106 136.16 140.579 136.047 140.939 135.82C141.299 135.593 141.579 135.28 141.779 134.88L143.959 135.72C143.746 136.24 143.419 136.687 142.979 137.06C142.552 137.433 142.039 137.72 141.439 137.92C140.852 138.107 140.219 138.2 139.539 138.2ZM151.021 127.8C151.914 127.8 152.668 127.933 153.281 128.2C153.908 128.453 154.408 128.807 154.781 129.26C155.168 129.7 155.441 130.193 155.601 130.74L153.041 131.66C152.908 131.06 152.681 130.607 152.361 130.3C152.041 129.993 151.608 129.84 151.061 129.84C150.554 129.84 150.121 129.96 149.761 130.2C149.401 130.427 149.128 130.78 148.941 131.26C148.754 131.727 148.661 132.313 148.661 133.02C148.661 133.727 148.754 134.313 148.941 134.78C149.141 135.247 149.421 135.593 149.781 135.82C150.154 136.047 150.588 136.16 151.081 136.16C151.481 136.16 151.821 136.093 152.101 135.96C152.381 135.813 152.608 135.607 152.781 135.34C152.968 135.073 153.094 134.753 153.161 134.38L155.641 135.18C155.494 135.78 155.221 136.307 154.821 136.76C154.421 137.213 153.908 137.567 153.281 137.82C152.654 138.073 151.928 138.2 151.101 138.2C150.074 138.2 149.168 137.993 148.381 137.58C147.594 137.167 146.988 136.573 146.561 135.8C146.134 135.027 145.921 134.093 145.921 133C145.921 131.907 146.134 130.973 146.561 130.2C146.988 129.427 147.588 128.833 148.361 128.42C149.134 128.007 150.021 127.8 151.021 127.8ZM161.31 124.94V134.74C161.31 135.22 161.43 135.573 161.67 135.8C161.923 136.013 162.263 136.12 162.69 136.12C163.023 136.12 163.317 136.073 163.57 135.98C163.823 135.873 164.05 135.733 164.25 135.56L164.69 137.38C164.37 137.633 163.97 137.833 163.49 137.98C163.01 138.127 162.503 138.2 161.97 138.2C161.303 138.2 160.71 138.1 160.19 137.9C159.683 137.7 159.283 137.38 158.99 136.94C158.71 136.5 158.57 135.913 158.57 135.18V125.7L161.31 124.94ZM164.51 128V130.04H156.73V128H164.51ZM169.844 138.2C169.177 138.2 168.577 138.08 168.044 137.84C167.51 137.6 167.084 137.22 166.764 136.7C166.457 136.167 166.304 135.48 166.304 134.64V128H169.044V133.98C169.044 134.753 169.204 135.293 169.524 135.6C169.844 135.893 170.304 136.04 170.904 136.04C171.184 136.04 171.457 135.993 171.724 135.9C171.99 135.793 172.224 135.633 172.424 135.42C172.637 135.207 172.804 134.933 172.924 134.6C173.044 134.253 173.104 133.847 173.104 133.38V128H175.844V138H173.404L173.304 136.26C172.97 136.927 172.51 137.42 171.924 137.74C171.35 138.047 170.657 138.2 169.844 138.2ZM178.727 138V128H181.107L181.287 129.96C181.554 129.267 181.94 128.733 182.447 128.36C182.967 127.987 183.614 127.8 184.387 127.8C184.614 127.8 184.82 127.82 185.007 127.86C185.194 127.9 185.347 127.953 185.467 128.02L185.147 130.32C185.014 130.267 184.847 130.227 184.647 130.2C184.46 130.173 184.214 130.16 183.907 130.16C183.507 130.16 183.12 130.26 182.747 130.46C182.374 130.647 182.067 130.94 181.827 131.34C181.587 131.727 181.467 132.22 181.467 132.82V138H178.727ZM191.609 138.2C190.556 138.2 189.636 137.993 188.849 137.58C188.076 137.167 187.476 136.573 187.049 135.8C186.623 135.027 186.409 134.093 186.409 133C186.409 131.907 186.623 130.973 187.049 130.2C187.476 129.427 188.069 128.833 188.829 128.42C189.603 128.007 190.483 127.8 191.469 127.8C192.483 127.8 193.343 128.007 194.049 128.42C194.756 128.82 195.296 129.373 195.669 130.08C196.043 130.773 196.229 131.567 196.229 132.46C196.229 132.727 196.223 132.98 196.209 133.22C196.196 133.46 196.176 133.673 196.149 133.86H188.169V131.96H194.949L193.629 132.44C193.629 131.6 193.436 130.953 193.049 130.5C192.676 130.047 192.143 129.82 191.449 129.82C190.943 129.82 190.503 129.94 190.129 130.18C189.769 130.42 189.496 130.78 189.309 131.26C189.123 131.727 189.029 132.32 189.029 133.04C189.029 133.747 189.129 134.333 189.329 134.8C189.543 135.253 189.836 135.593 190.209 135.82C190.596 136.047 191.056 136.16 191.589 136.16C192.176 136.16 192.649 136.047 193.009 135.82C193.369 135.593 193.649 135.28 193.849 134.88L196.029 135.72C195.816 136.24 195.489 136.687 195.049 137.06C194.623 137.433 194.109 137.72 193.509 137.92C192.923 138.107 192.289 138.2 191.609 138.2Z" fill="#2947A9"/>
<defs>
<clipPath id="clip0_27_139">
<rect width="40" height="40" fill="white" transform="translate(115.5 38)"/>
</clipPath>
</defs>
</svg>
