<svg width="271" height="181" viewBox="0 0 271 181" fill="none" xmlns="http://www.w3.org/2000/svg">
<path d="M0 4C0 1.79086 1.79086 0 4 0H267C269.209 0 271 1.79086 271 4V177C271 179.209 269.209 181 267 181H4C1.79086 181 0 179.209 0 177V4Z" fill="#2947A9"/>
<g clip-path="url(#clip0_27_101)">
<rect x="115.5" y="54.6666" width="23.3333" height="23.3333" fill="#7595FD"/>
<path d="M148 43C146.895 43.0009 145.836 43.4402 145.055 44.2214C144.273 45.0026 143.834 46.0619 143.833 47.1667C143.833 47.7617 143.963 48.3267 144.19 48.8417L140.932 52.5067C139.825 51.7427 138.512 51.3334 137.167 51.3334C135.933 51.3334 134.793 51.6934 133.802 52.2767L130.012 48.4884L129.973 48.5267C130.3 47.8634 130.5 47.125 130.5 46.3334C130.5 45.3445 130.207 44.3778 129.657 43.5555C129.108 42.7333 128.327 42.0924 127.413 41.714C126.5 41.3355 125.494 41.2365 124.525 41.4294C123.555 41.6224 122.664 42.0986 121.964 42.7978C121.265 43.4971 120.789 44.388 120.596 45.3579C120.403 46.3278 120.502 47.3332 120.881 48.2468C121.259 49.1604 121.9 49.9413 122.722 50.4907C123.544 51.0401 124.511 51.3334 125.5 51.3334C126.292 51.3334 127.028 51.1334 127.693 50.8067L127.655 50.845L131.445 54.6334C130.833 55.6501 130.506 56.8132 130.5 58C130.5 59.6617 131.133 61.165 132.142 62.335L127.847 66.6284C127.365 66.4357 126.852 66.3356 126.333 66.3334C124.037 66.3334 122.167 68.2017 122.167 70.5C122.167 72.7984 124.037 74.6667 126.333 74.6667C128.63 74.6667 130.5 72.7984 130.5 70.5C130.5 69.965 130.39 69.4567 130.205 68.985L134.935 64.255C135.637 64.505 136.38 64.6667 137.167 64.6667C140.843 64.6667 143.833 61.6767 143.833 58C143.833 56.94 143.562 55.9517 143.12 55.06L146.648 51.0884C147.075 51.235 147.525 51.3334 148 51.3334C150.298 51.3334 152.167 49.465 152.167 47.1667C152.167 44.8684 150.298 43 148 43ZM137.167 61.3334C135.328 61.3334 133.833 59.8384 133.833 58C133.833 56.1617 135.328 54.6667 137.167 54.6667C139.005 54.6667 140.5 56.1617 140.5 58C140.5 59.8384 139.005 61.3334 137.167 61.3334Z" fill="white"/>
</g>
<rect x="105.5" y="98" width="60" height="2" fill="#E0E3EB"/>
<path d="M88.2353 124.8C89.7286 124.8 90.902 125.16 91.7553 125.88C92.6086 126.6 93.0353 127.567 93.0353 128.78C93.0353 130.073 92.6086 131.067 91.7553 131.76C90.902 132.44 89.7353 132.78 88.2553 132.78L87.9753 132.94H85.1353V138H82.4153V124.8H88.2353ZM87.9153 130.84C88.6886 130.84 89.262 130.687 89.6353 130.38C90.022 130.06 90.2153 129.573 90.2153 128.92C90.2153 128.267 90.022 127.787 89.6353 127.48C89.262 127.16 88.6886 127 87.9153 127H85.1353V130.84H87.9153ZM89.5353 131.42L93.8153 138H90.7153L87.1753 132.22L89.5353 131.42ZM100.174 138.2C99.1204 138.2 98.2004 137.993 97.4138 137.58C96.6404 137.167 96.0404 136.573 95.6138 135.8C95.1871 135.027 94.9738 134.093 94.9738 133C94.9738 131.907 95.1871 130.973 95.6138 130.2C96.0404 129.427 96.6338 128.833 97.3938 128.42C98.1671 128.007 99.0471 127.8 100.034 127.8C101.047 127.8 101.907 128.007 102.614 128.42C103.32 128.82 103.86 129.373 104.234 130.08C104.607 130.773 104.794 131.567 104.794 132.46C104.794 132.727 104.787 132.98 104.774 133.22C104.76 133.46 104.74 133.673 104.714 133.86H96.7337V131.96H103.514L102.194 132.44C102.194 131.6 102 130.953 101.614 130.5C101.24 130.047 100.707 129.82 100.014 129.82C99.5071 129.82 99.0671 129.94 98.6938 130.18C98.3338 130.42 98.0604 130.78 97.8738 131.26C97.6871 131.727 97.5938 132.32 97.5938 133.04C97.5938 133.747 97.6938 134.333 97.8938 134.8C98.1071 135.253 98.4004 135.593 98.7738 135.82C99.1604 136.047 99.6204 136.16 100.154 136.16C100.74 136.16 101.214 136.047 101.574 135.82C101.934 135.593 102.214 135.28 102.414 134.88L104.594 135.72C104.38 136.24 104.054 136.687 103.614 137.06C103.187 137.433 102.674 137.72 102.074 137.92C101.487 138.107 100.854 138.2 100.174 138.2ZM107.116 138V128H109.576L109.736 131L109.396 130.68C109.556 130.027 109.809 129.487 110.156 129.06C110.502 128.633 110.922 128.32 111.416 128.12C111.922 127.907 112.476 127.8 113.076 127.8C113.769 127.8 114.382 127.933 114.916 128.2C115.462 128.467 115.889 128.873 116.196 129.42C116.516 129.953 116.676 130.627 116.676 131.44V138H113.936V132.22C113.936 131.367 113.769 130.78 113.436 130.46C113.102 130.127 112.669 129.96 112.136 129.96C111.762 129.96 111.396 130.053 111.036 130.24C110.689 130.413 110.402 130.7 110.176 131.1C109.962 131.5 109.856 132.033 109.856 132.7V138H107.116ZM124.059 127.8C125.072 127.8 125.959 128.007 126.719 128.42C127.492 128.833 128.092 129.427 128.519 130.2C128.959 130.973 129.179 131.907 129.179 133C129.179 134.08 128.959 135.013 128.519 135.8C128.092 136.573 127.492 137.167 126.719 137.58C125.959 137.993 125.072 138.2 124.059 138.2C123.059 138.2 122.172 137.993 121.399 137.58C120.625 137.167 120.019 136.573 119.579 135.8C119.152 135.013 118.939 134.08 118.939 133C118.939 131.907 119.152 130.973 119.579 130.2C120.019 129.427 120.625 128.833 121.399 128.42C122.172 128.007 123.059 127.8 124.059 127.8ZM124.059 129.84C123.552 129.84 123.119 129.96 122.759 130.2C122.412 130.427 122.145 130.773 121.959 131.24C121.772 131.707 121.679 132.293 121.679 133C121.679 133.707 121.772 134.293 121.959 134.76C122.145 135.227 122.412 135.58 122.759 135.82C123.119 136.047 123.552 136.16 124.059 136.16C124.552 136.16 124.972 136.047 125.319 135.82C125.679 135.58 125.952 135.227 126.139 134.76C126.325 134.293 126.419 133.707 126.419 133C126.419 132.293 126.325 131.707 126.139 131.24C125.952 130.773 125.679 130.427 125.319 130.2C124.972 129.96 124.552 129.84 124.059 129.84ZM137.914 128H140.754L136.954 138H133.794L129.994 128H132.914L135.394 135.9L137.914 128ZM147.757 131.62C147.757 131.047 147.591 130.6 147.257 130.28C146.937 129.96 146.511 129.8 145.977 129.8C145.484 129.8 145.051 129.927 144.677 130.18C144.304 130.433 144.031 130.853 143.857 131.44L141.517 130.72C141.744 129.84 142.237 129.133 142.997 128.6C143.771 128.067 144.804 127.8 146.097 127.8C146.977 127.8 147.744 127.94 148.397 128.22C149.051 128.487 149.557 128.893 149.917 129.44C150.291 129.987 150.477 130.673 150.477 131.5V135.56C150.477 136.067 150.717 136.32 151.197 136.32C151.424 136.32 151.637 136.287 151.837 136.22L151.677 137.92C151.331 138.093 150.897 138.18 150.377 138.18C149.911 138.18 149.491 138.1 149.117 137.94C148.744 137.78 148.451 137.54 148.237 137.22C148.024 136.887 147.917 136.473 147.917 135.98V135.9L148.397 135.82C148.317 136.327 148.097 136.76 147.737 137.12C147.377 137.467 146.937 137.733 146.417 137.92C145.911 138.107 145.384 138.2 144.837 138.2C144.157 138.2 143.571 138.1 143.077 137.9C142.584 137.687 142.204 137.38 141.937 136.98C141.671 136.58 141.537 136.087 141.537 135.5C141.537 134.753 141.777 134.147 142.257 133.68C142.737 133.2 143.424 132.873 144.317 132.7L148.077 131.94L148.057 133.64L145.657 134.12C145.204 134.213 144.857 134.34 144.617 134.5C144.391 134.647 144.277 134.893 144.277 135.24C144.277 135.573 144.397 135.827 144.637 136C144.891 136.173 145.191 136.26 145.537 136.26C145.817 136.26 146.091 136.227 146.357 136.16C146.624 136.093 146.864 135.987 147.077 135.84C147.291 135.693 147.457 135.493 147.577 135.24C147.697 134.987 147.757 134.68 147.757 134.32V131.62ZM156.691 124.94V134.74C156.691 135.22 156.811 135.573 157.051 135.8C157.304 136.013 157.644 136.12 158.071 136.12C158.404 136.12 158.698 136.073 158.951 135.98C159.204 135.873 159.431 135.733 159.631 135.56L160.071 137.38C159.751 137.633 159.351 137.833 158.871 137.98C158.391 138.127 157.884 138.2 157.351 138.2C156.684 138.2 156.091 138.1 155.571 137.9C155.064 137.7 154.664 137.38 154.371 136.94C154.091 136.5 153.951 135.913 153.951 135.18V125.7L156.691 124.94ZM159.891 128V130.04H152.111V128H159.891ZM163.125 126.56C162.551 126.56 162.125 126.44 161.845 126.2C161.565 125.947 161.425 125.58 161.425 125.1C161.425 124.607 161.565 124.24 161.845 124C162.125 123.747 162.551 123.62 163.125 123.62C163.698 123.62 164.125 123.747 164.405 124C164.685 124.24 164.825 124.607 164.825 125.1C164.825 125.58 164.685 125.947 164.405 126.2C164.125 126.44 163.698 126.56 163.125 126.56ZM164.485 128V138H161.745V128H164.485ZM171.949 127.8C172.963 127.8 173.849 128.007 174.609 128.42C175.383 128.833 175.983 129.427 176.409 130.2C176.849 130.973 177.069 131.907 177.069 133C177.069 134.08 176.849 135.013 176.409 135.8C175.983 136.573 175.383 137.167 174.609 137.58C173.849 137.993 172.963 138.2 171.949 138.2C170.949 138.2 170.063 137.993 169.289 137.58C168.516 137.167 167.909 136.573 167.469 135.8C167.043 135.013 166.829 134.08 166.829 133C166.829 131.907 167.043 130.973 167.469 130.2C167.909 129.427 168.516 128.833 169.289 128.42C170.063 128.007 170.949 127.8 171.949 127.8ZM171.949 129.84C171.443 129.84 171.009 129.96 170.649 130.2C170.303 130.427 170.036 130.773 169.849 131.24C169.663 131.707 169.569 132.293 169.569 133C169.569 133.707 169.663 134.293 169.849 134.76C170.036 135.227 170.303 135.58 170.649 135.82C171.009 136.047 171.443 136.16 171.949 136.16C172.443 136.16 172.863 136.047 173.209 135.82C173.569 135.58 173.843 135.227 174.029 134.76C174.216 134.293 174.309 133.707 174.309 133C174.309 132.293 174.216 131.707 174.029 131.24C173.843 130.773 173.569 130.427 173.209 130.2C172.863 129.96 172.443 129.84 171.949 129.84ZM179.362 138V128H181.822L181.982 131L181.642 130.68C181.802 130.027 182.055 129.487 182.402 129.06C182.749 128.633 183.169 128.32 183.662 128.12C184.169 127.907 184.722 127.8 185.322 127.8C186.015 127.8 186.629 127.933 187.162 128.2C187.709 128.467 188.135 128.873 188.442 129.42C188.762 129.953 188.922 130.627 188.922 131.44V138H186.182V132.22C186.182 131.367 186.015 130.78 185.682 130.46C185.349 130.127 184.915 129.96 184.382 129.96C184.009 129.96 183.642 130.053 183.282 130.24C182.935 130.413 182.649 130.7 182.422 131.1C182.209 131.5 182.102 132.033 182.102 132.7V138H179.362Z" fill="white"/>
<defs>
<clipPath id="clip0_27_101">
<rect width="40" height="40" fill="white" transform="translate(115.5 38)"/>
</clipPath>
</defs>
</svg>
