<svg width="271" height="181" viewBox="0 0 271 181" fill="none" xmlns="http://www.w3.org/2000/svg">
<path d="M0 4C0 1.79086 1.79086 0 4 0H267C269.209 0 271 1.79086 271 4V177C271 179.209 269.209 181 267 181H4C1.79086 181 0 179.209 0 177V4Z" fill="#2947A9"/>
<g clip-path="url(#clip0_27_138)">
<rect x="115.5" y="54.6667" width="23.3333" height="23.3333" fill="#7595FD"/>
<path d="M145.5 64.6667H142.167V63.0001H128.833V64.6667H125.5V63.0001H118.833V71.3334H152.167V63.0001H145.5V64.6667ZM148.833 51.3334H143.833V48.0001C143.833 46.1667 142.333 44.6667 140.5 44.6667H130.5C128.667 44.6667 127.167 46.1667 127.167 48.0001V51.3334H122.167C120.333 51.3334 118.833 52.8334 118.833 54.6667V61.3334H125.5V58.0001H128.833V61.3334H142.167V58.0001H145.5V61.3334H152.167V54.6667C152.167 52.8334 150.667 51.3334 148.833 51.3334ZM140.5 51.3334H130.5V48.0001H140.5V51.3334Z" fill="white"/>
</g>
<rect x="105.5" y="98" width="60" height="2" fill="#E0E3EB"/>
<path d="M67.1806 124.8C68.674 124.8 69.8473 125.16 70.7006 125.88C71.554 126.6 71.9806 127.567 71.9806 128.78C71.9806 130.073 71.554 131.067 70.7006 131.76C69.8473 132.44 68.6806 132.78 67.2006 132.78L66.9206 132.94H64.0806V138H61.3606V124.8H67.1806ZM66.8606 130.84C67.634 130.84 68.2073 130.687 68.5806 130.38C68.9673 130.06 69.1606 129.573 69.1606 128.92C69.1606 128.267 68.9673 127.787 68.5806 127.48C68.2073 127.16 67.634 127 66.8606 127H64.0806V130.84H66.8606ZM68.4806 131.42L72.7606 138H69.6606L66.1206 132.22L68.4806 131.42ZM79.1191 138.2C78.0657 138.2 77.1457 137.993 76.3591 137.58C75.5857 137.167 74.9857 136.573 74.5591 135.8C74.1324 135.027 73.9191 134.093 73.9191 133C73.9191 131.907 74.1324 130.973 74.5591 130.2C74.9857 129.427 75.5791 128.833 76.3391 128.42C77.1124 128.007 77.9924 127.8 78.9791 127.8C79.9924 127.8 80.8524 128.007 81.5591 128.42C82.2657 128.82 82.8057 129.373 83.1791 130.08C83.5524 130.773 83.7391 131.567 83.7391 132.46C83.7391 132.727 83.7324 132.98 83.7191 133.22C83.7057 133.46 83.6857 133.673 83.6591 133.86H75.6791V131.96H82.4591L81.1391 132.44C81.1391 131.6 80.9457 130.953 80.5591 130.5C80.1857 130.047 79.6524 129.82 78.9591 129.82C78.4524 129.82 78.0124 129.94 77.6391 130.18C77.2791 130.42 77.0057 130.78 76.8191 131.26C76.6324 131.727 76.5391 132.32 76.5391 133.04C76.5391 133.747 76.6391 134.333 76.8391 134.8C77.0524 135.253 77.3457 135.593 77.7191 135.82C78.1057 136.047 78.5657 136.16 79.0991 136.16C79.6857 136.16 80.1591 136.047 80.5191 135.82C80.8791 135.593 81.1591 135.28 81.3591 134.88L83.5391 135.72C83.3257 136.24 82.9991 136.687 82.5591 137.06C82.1324 137.433 81.6191 137.72 81.0191 137.92C80.4324 138.107 79.7991 138.2 79.1191 138.2ZM86.0611 142.2V128H88.5211L88.7011 131.18L88.3611 130.82C88.4811 130.233 88.7011 129.713 89.0211 129.26C89.3544 128.807 89.7744 128.453 90.2811 128.2C90.7878 127.933 91.3544 127.8 91.9811 127.8C92.7944 127.8 93.5211 128.007 94.1611 128.42C94.8011 128.833 95.3011 129.427 95.6611 130.2C96.0344 130.96 96.2211 131.887 96.2211 132.98C96.2211 134.073 96.0344 135.013 95.6611 135.8C95.2878 136.573 94.7744 137.167 94.1211 137.58C93.4811 137.993 92.7478 138.2 91.9211 138.2C91.0411 138.2 90.3078 137.953 89.7211 137.46C89.1478 136.967 88.7544 136.347 88.5411 135.6L88.8011 135.18V142.2H86.0611ZM91.1211 136.1C91.8544 136.1 92.4278 135.84 92.8411 135.32C93.2678 134.787 93.4811 134.013 93.4811 133C93.4811 131.987 93.2744 131.22 92.8611 130.7C92.4611 130.167 91.8944 129.9 91.1611 129.9C90.6944 129.9 90.2811 130.027 89.9211 130.28C89.5744 130.52 89.3011 130.873 89.1011 131.34C88.9011 131.793 88.8011 132.347 88.8011 133C88.8011 133.64 88.8944 134.193 89.0811 134.66C89.2678 135.127 89.5344 135.487 89.8811 135.74C90.2411 135.98 90.6544 136.1 91.1211 136.1ZM104.242 131.62C104.242 131.047 104.075 130.6 103.742 130.28C103.422 129.96 102.995 129.8 102.462 129.8C101.968 129.8 101.535 129.927 101.162 130.18C100.788 130.433 100.515 130.853 100.342 131.44L98.0016 130.72C98.2282 129.84 98.7216 129.133 99.4816 128.6C100.255 128.067 101.288 127.8 102.582 127.8C103.462 127.8 104.228 127.94 104.882 128.22C105.535 128.487 106.042 128.893 106.402 129.44C106.775 129.987 106.962 130.673 106.962 131.5V135.56C106.962 136.067 107.202 136.32 107.682 136.32C107.908 136.32 108.122 136.287 108.322 136.22L108.162 137.92C107.815 138.093 107.382 138.18 106.862 138.18C106.395 138.18 105.975 138.1 105.602 137.94C105.228 137.78 104.935 137.54 104.722 137.22C104.508 136.887 104.402 136.473 104.402 135.98V135.9L104.882 135.82C104.802 136.327 104.582 136.76 104.222 137.12C103.862 137.467 103.422 137.733 102.902 137.92C102.395 138.107 101.868 138.2 101.322 138.2C100.642 138.2 100.055 138.1 99.5616 137.9C99.0682 137.687 98.6882 137.38 98.4216 136.98C98.1549 136.58 98.0216 136.087 98.0216 135.5C98.0216 134.753 98.2616 134.147 98.7416 133.68C99.2216 133.2 99.9082 132.873 100.802 132.7L104.562 131.94L104.542 133.64L102.142 134.12C101.688 134.213 101.342 134.34 101.102 134.5C100.875 134.647 100.762 134.893 100.762 135.24C100.762 135.573 100.882 135.827 101.122 136C101.375 136.173 101.675 136.26 102.022 136.26C102.302 136.26 102.575 136.227 102.842 136.16C103.108 136.093 103.348 135.987 103.562 135.84C103.775 135.693 103.942 135.493 104.062 135.24C104.182 134.987 104.242 134.68 104.242 134.32V131.62ZM111.406 126.56C110.833 126.56 110.406 126.44 110.126 126.2C109.846 125.947 109.706 125.58 109.706 125.1C109.706 124.607 109.846 124.24 110.126 124C110.406 123.747 110.833 123.62 111.406 123.62C111.979 123.62 112.406 123.747 112.686 124C112.966 124.24 113.106 124.607 113.106 125.1C113.106 125.58 112.966 125.947 112.686 126.2C112.406 126.44 111.979 126.56 111.406 126.56ZM112.766 128V138H110.026V128H112.766ZM115.67 138V128H118.05L118.23 129.96C118.497 129.267 118.884 128.733 119.39 128.36C119.91 127.987 120.557 127.8 121.33 127.8C121.557 127.8 121.764 127.82 121.95 127.86C122.137 127.9 122.29 127.953 122.41 128.02L122.09 130.32C121.957 130.267 121.79 130.227 121.59 130.2C121.404 130.173 121.157 130.16 120.85 130.16C120.45 130.16 120.064 130.26 119.69 130.46C119.317 130.647 119.01 130.94 118.77 131.34C118.53 131.727 118.41 132.22 118.41 132.82V138H115.67ZM134.95 124.6C136.15 124.6 137.203 124.807 138.11 125.22C139.017 125.633 139.79 126.247 140.43 127.06L138.89 128.84C138.343 128.147 137.743 127.64 137.09 127.32C136.45 126.987 135.703 126.82 134.85 126.82C134.29 126.82 133.823 126.893 133.45 127.04C133.09 127.187 132.823 127.38 132.65 127.62C132.49 127.86 132.41 128.127 132.41 128.42C132.41 128.78 132.55 129.087 132.83 129.34C133.11 129.58 133.59 129.78 134.27 129.94L136.73 130.5C138.037 130.793 138.97 131.233 139.53 131.82C140.103 132.393 140.39 133.14 140.39 134.06C140.39 134.927 140.163 135.673 139.71 136.3C139.257 136.913 138.623 137.387 137.81 137.72C136.997 138.04 136.063 138.2 135.01 138.2C134.09 138.2 133.243 138.093 132.47 137.88C131.71 137.653 131.03 137.347 130.43 136.96C129.83 136.573 129.33 136.127 128.93 135.62L130.49 133.76C130.797 134.187 131.177 134.567 131.63 134.9C132.083 135.233 132.597 135.5 133.17 135.7C133.757 135.887 134.37 135.98 135.01 135.98C135.557 135.98 136.017 135.92 136.39 135.8C136.777 135.667 137.063 135.487 137.25 135.26C137.45 135.02 137.55 134.733 137.55 134.4C137.55 134.053 137.43 133.76 137.19 133.52C136.963 133.267 136.537 133.073 135.91 132.94L133.23 132.34C132.457 132.153 131.79 131.913 131.23 131.62C130.683 131.313 130.263 130.927 129.97 130.46C129.69 129.98 129.55 129.413 129.55 128.76C129.55 127.973 129.763 127.267 130.19 126.64C130.617 126.013 131.23 125.52 132.03 125.16C132.843 124.787 133.817 124.6 134.95 124.6ZM147.361 138.2C146.308 138.2 145.388 137.993 144.601 137.58C143.828 137.167 143.228 136.573 142.801 135.8C142.375 135.027 142.161 134.093 142.161 133C142.161 131.907 142.375 130.973 142.801 130.2C143.228 129.427 143.821 128.833 144.581 128.42C145.355 128.007 146.235 127.8 147.221 127.8C148.235 127.8 149.095 128.007 149.801 128.42C150.508 128.82 151.048 129.373 151.421 130.08C151.795 130.773 151.981 131.567 151.981 132.46C151.981 132.727 151.975 132.98 151.961 133.22C151.948 133.46 151.928 133.673 151.901 133.86H143.921V131.96H150.701L149.381 132.44C149.381 131.6 149.188 130.953 148.801 130.5C148.428 130.047 147.895 129.82 147.201 129.82C146.695 129.82 146.255 129.94 145.881 130.18C145.521 130.42 145.248 130.78 145.061 131.26C144.875 131.727 144.781 132.32 144.781 133.04C144.781 133.747 144.881 134.333 145.081 134.8C145.295 135.253 145.588 135.593 145.961 135.82C146.348 136.047 146.808 136.16 147.341 136.16C147.928 136.16 148.401 136.047 148.761 135.82C149.121 135.593 149.401 135.28 149.601 134.88L151.781 135.72C151.568 136.24 151.241 136.687 150.801 137.06C150.375 137.433 149.861 137.72 149.261 137.92C148.675 138.107 148.041 138.2 147.361 138.2ZM154.303 138V128H156.683L156.863 129.96C157.13 129.267 157.517 128.733 158.023 128.36C158.543 127.987 159.19 127.8 159.963 127.8C160.19 127.8 160.397 127.82 160.583 127.86C160.77 127.9 160.923 127.953 161.043 128.02L160.723 130.32C160.59 130.267 160.423 130.227 160.223 130.2C160.037 130.173 159.79 130.16 159.483 130.16C159.083 130.16 158.697 130.26 158.323 130.46C157.95 130.647 157.643 130.94 157.403 131.34C157.163 131.727 157.043 132.22 157.043 132.82V138H154.303ZM169.301 128H172.141L168.341 138H165.181L161.381 128H164.301L166.781 135.9L169.301 128ZM175.039 126.56C174.465 126.56 174.039 126.44 173.759 126.2C173.479 125.947 173.339 125.58 173.339 125.1C173.339 124.607 173.479 124.24 173.759 124C174.039 123.747 174.465 123.62 175.039 123.62C175.612 123.62 176.039 123.747 176.319 124C176.599 124.24 176.739 124.607 176.739 125.1C176.739 125.58 176.599 125.947 176.319 126.2C176.039 126.44 175.612 126.56 175.039 126.56ZM176.399 128V138H173.659V128H176.399ZM183.843 127.8C184.737 127.8 185.49 127.933 186.103 128.2C186.73 128.453 187.23 128.807 187.603 129.26C187.99 129.7 188.263 130.193 188.423 130.74L185.863 131.66C185.73 131.06 185.503 130.607 185.183 130.3C184.863 129.993 184.43 129.84 183.883 129.84C183.377 129.84 182.943 129.96 182.583 130.2C182.223 130.427 181.95 130.78 181.763 131.26C181.577 131.727 181.483 132.313 181.483 133.02C181.483 133.727 181.577 134.313 181.763 134.78C181.963 135.247 182.243 135.593 182.603 135.82C182.977 136.047 183.41 136.16 183.903 136.16C184.303 136.16 184.643 136.093 184.923 135.96C185.203 135.813 185.43 135.607 185.603 135.34C185.79 135.073 185.917 134.753 185.983 134.38L188.463 135.18C188.317 135.78 188.043 136.307 187.643 136.76C187.243 137.213 186.73 137.567 186.103 137.82C185.477 138.073 184.75 138.2 183.923 138.2C182.897 138.2 181.99 137.993 181.203 137.58C180.417 137.167 179.81 136.573 179.383 135.8C178.957 135.027 178.743 134.093 178.743 133C178.743 131.907 178.957 130.973 179.383 130.2C179.81 129.427 180.41 128.833 181.183 128.42C181.957 128.007 182.843 127.8 183.843 127.8ZM195.232 138.2C194.179 138.2 193.259 137.993 192.472 137.58C191.699 137.167 191.099 136.573 190.672 135.8C190.246 135.027 190.032 134.093 190.032 133C190.032 131.907 190.246 130.973 190.672 130.2C191.099 129.427 191.692 128.833 192.452 128.42C193.226 128.007 194.106 127.8 195.092 127.8C196.106 127.8 196.966 128.007 197.672 128.42C198.379 128.82 198.919 129.373 199.292 130.08C199.666 130.773 199.852 131.567 199.852 132.46C199.852 132.727 199.846 132.98 199.832 133.22C199.819 133.46 199.799 133.673 199.772 133.86H191.792V131.96H198.572L197.252 132.44C197.252 131.6 197.059 130.953 196.672 130.5C196.299 130.047 195.766 129.82 195.072 129.82C194.566 129.82 194.126 129.94 193.752 130.18C193.392 130.42 193.119 130.78 192.932 131.26C192.746 131.727 192.652 132.32 192.652 133.04C192.652 133.747 192.752 134.333 192.952 134.8C193.166 135.253 193.459 135.593 193.832 135.82C194.219 136.047 194.679 136.16 195.212 136.16C195.799 136.16 196.272 136.047 196.632 135.82C196.992 135.593 197.272 135.28 197.472 134.88L199.652 135.72C199.439 136.24 199.112 136.687 198.672 137.06C198.246 137.433 197.732 137.72 197.132 137.92C196.546 138.107 195.912 138.2 195.232 138.2ZM206.174 138.2C205.161 138.2 204.234 138.02 203.394 137.66C202.568 137.3 201.894 136.793 201.374 136.14L202.954 134.54C203.274 135.02 203.701 135.413 204.234 135.72C204.768 136.027 205.401 136.18 206.134 136.18C206.654 136.18 207.068 136.107 207.374 135.96C207.694 135.8 207.854 135.553 207.854 135.22C207.854 135.007 207.781 134.827 207.634 134.68C207.488 134.52 207.194 134.393 206.754 134.3L204.994 133.94C203.834 133.7 203.008 133.34 202.514 132.86C202.034 132.367 201.794 131.733 201.794 130.96C201.794 130.413 201.954 129.9 202.274 129.42C202.608 128.94 203.101 128.553 203.754 128.26C204.408 127.953 205.221 127.8 206.194 127.8C207.194 127.8 208.061 127.96 208.794 128.28C209.541 128.587 210.128 129.047 210.554 129.66L208.914 131.26C208.621 130.793 208.234 130.44 207.754 130.2C207.288 129.947 206.794 129.82 206.274 129.82C205.901 129.82 205.581 129.86 205.314 129.94C205.048 130.02 204.848 130.133 204.714 130.28C204.581 130.413 204.514 130.587 204.514 130.8C204.514 131.013 204.608 131.2 204.794 131.36C204.981 131.507 205.321 131.633 205.814 131.74L207.854 132.16C208.841 132.36 209.548 132.7 209.974 133.18C210.401 133.647 210.614 134.213 210.614 134.88C210.614 135.52 210.441 136.093 210.094 136.6C209.761 137.093 209.261 137.487 208.594 137.78C207.941 138.06 207.134 138.2 206.174 138.2Z" fill="white"/>
<defs>
<clipPath id="clip0_27_138">
<rect width="40" height="40" fill="white" transform="translate(115.5 38)"/>
</clipPath>
</defs>
</svg>
