<svg width="270" height="181" viewBox="0 0 270 181" fill="none" xmlns="http://www.w3.org/2000/svg">
<path d="M0 4C0 1.79086 1.79086 0 4 0H266C268.209 0 270 1.79086 270 4V177C270 179.209 268.209 181 266 181H3.99999C1.79086 181 0 179.209 0 177V4Z" fill="white"/>
<rect x="115" y="54.6666" width="23.3333" height="23.3333" fill="#7595FD"/>
<path d="M133.333 48H138.333L143.817 42.5C143.972 42.3437 144.156 42.2198 144.359 42.1351C144.562 42.0505 144.78 42.007 145 42.007C145.22 42.007 145.438 42.0505 145.641 42.1351C145.844 42.2198 146.028 42.3437 146.183 42.5L150.483 46.8166C150.794 47.1289 150.968 47.5513 150.968 47.9916C150.968 48.4319 150.794 48.8544 150.483 49.1666L146.667 53H133.333V56.3333C133.333 56.7753 133.158 57.1992 132.845 57.5118C132.533 57.8244 132.109 58 131.667 58C131.225 58 130.801 57.8244 130.488 57.5118C130.176 57.1992 130 56.7753 130 56.3333V51.3333C130 50.4492 130.351 49.6014 130.976 48.9763C131.601 48.3511 132.449 48 133.333 48ZM123.333 56.3333V63L119.517 66.8166C119.206 67.1289 119.032 67.5513 119.032 67.9916C119.032 68.4319 119.206 68.8544 119.517 69.1666L123.817 73.4833C123.972 73.6395 124.156 73.7635 124.359 73.8481C124.562 73.9327 124.78 73.9763 125 73.9763C125.22 73.9763 125.438 73.9327 125.641 73.8481C125.844 73.7635 126.028 73.6395 126.183 73.4833L133.333 66.3333H140C140.442 66.3333 140.866 66.1577 141.179 65.8451C141.491 65.5326 141.667 65.1086 141.667 64.6666V63H143.333C143.775 63 144.199 62.8244 144.512 62.5118C144.824 62.1992 145 61.7753 145 61.3333V59.6666H146.667C147.109 59.6666 147.533 59.491 147.845 59.1785C148.158 58.8659 148.333 58.442 148.333 58V56.3333H136.667V58C136.667 58.884 136.315 59.7319 135.69 60.357C135.065 60.9821 134.217 61.3333 133.333 61.3333H130C129.116 61.3333 128.268 60.9821 127.643 60.357C127.018 59.7319 126.667 58.884 126.667 58V53L123.333 56.3333Z" fill="#292E3D"/>
<rect x="105" y="98" width="60" height="2" fill="#E0E3EB"/>
<path d="M85.3149 134.36C85.0616 135.213 84.6616 135.927 84.1149 136.5C83.5683 137.073 82.9216 137.5 82.1749 137.78C81.4283 138.06 80.6083 138.2 79.7149 138.2C78.4083 138.2 77.2749 137.927 76.3149 137.38C75.3683 136.833 74.6349 136.053 74.1149 135.04C73.6083 134.027 73.3549 132.813 73.3549 131.4C73.3549 129.987 73.6083 128.773 74.1149 127.76C74.6349 126.747 75.3683 125.967 76.3149 125.42C77.2749 124.873 78.3949 124.6 79.6749 124.6C80.5816 124.6 81.4016 124.727 82.1349 124.98C82.8683 125.22 83.4883 125.593 83.9949 126.1C84.5149 126.607 84.8949 127.247 85.1349 128.02L82.6349 129.08C82.4083 128.28 82.0616 127.713 81.5949 127.38C81.1283 127.033 80.5283 126.86 79.7949 126.86C79.0749 126.86 78.4416 127.033 77.8949 127.38C77.3616 127.727 76.9483 128.24 76.6549 128.92C76.3616 129.587 76.2149 130.413 76.2149 131.4C76.2149 132.373 76.3483 133.2 76.6149 133.88C76.8949 134.56 77.3016 135.073 77.8349 135.42C78.3683 135.767 79.0216 135.94 79.7949 135.94C80.5149 135.94 81.1349 135.747 81.6549 135.36C82.1883 134.973 82.5616 134.387 82.7749 133.6L85.3149 134.36ZM91.9473 127.8C92.9606 127.8 93.8473 128.007 94.6073 128.42C95.3806 128.833 95.9806 129.427 96.4073 130.2C96.8473 130.973 97.0673 131.907 97.0673 133C97.0673 134.08 96.8473 135.013 96.4073 135.8C95.9806 136.573 95.3806 137.167 94.6073 137.58C93.8473 137.993 92.9606 138.2 91.9473 138.2C90.9473 138.2 90.0606 137.993 89.2873 137.58C88.5139 137.167 87.9073 136.573 87.4673 135.8C87.0406 135.013 86.8273 134.08 86.8273 133C86.8273 131.907 87.0406 130.973 87.4673 130.2C87.9073 129.427 88.5139 128.833 89.2873 128.42C90.0606 128.007 90.9473 127.8 91.9473 127.8ZM91.9473 129.84C91.4406 129.84 91.0073 129.96 90.6473 130.2C90.3006 130.427 90.0339 130.773 89.8473 131.24C89.6606 131.707 89.5673 132.293 89.5673 133C89.5673 133.707 89.6606 134.293 89.8473 134.76C90.0339 135.227 90.3006 135.58 90.6473 135.82C91.0073 136.047 91.4406 136.16 91.9473 136.16C92.4406 136.16 92.8606 136.047 93.2073 135.82C93.5673 135.58 93.8406 135.227 94.0273 134.76C94.2139 134.293 94.3073 133.707 94.3073 133C94.3073 132.293 94.2139 131.707 94.0273 131.24C93.8406 130.773 93.5673 130.427 93.2073 130.2C92.8606 129.96 92.4406 129.84 91.9473 129.84ZM99.3599 138V128H101.82L101.98 131L101.64 130.68C101.8 130.027 102.053 129.487 102.4 129.06C102.747 128.633 103.167 128.32 103.66 128.12C104.167 127.907 104.72 127.8 105.32 127.8C106.013 127.8 106.627 127.933 107.16 128.2C107.707 128.467 108.133 128.873 108.44 129.42C108.76 129.953 108.92 130.627 108.92 131.44V138H106.18V132.22C106.18 131.367 106.013 130.78 105.68 130.46C105.347 130.127 104.913 129.96 104.38 129.96C104.007 129.96 103.64 130.053 103.28 130.24C102.933 130.413 102.647 130.7 102.42 131.1C102.207 131.5 102.1 132.033 102.1 132.7V138H99.3599ZM115.743 138.2C114.729 138.2 113.803 138.02 112.963 137.66C112.136 137.3 111.463 136.793 110.943 136.14L112.523 134.54C112.843 135.02 113.269 135.413 113.803 135.72C114.336 136.027 114.969 136.18 115.703 136.18C116.223 136.18 116.636 136.107 116.943 135.96C117.263 135.8 117.423 135.553 117.423 135.22C117.423 135.007 117.349 134.827 117.203 134.68C117.056 134.52 116.763 134.393 116.323 134.3L114.563 133.94C113.403 133.7 112.576 133.34 112.083 132.86C111.603 132.367 111.363 131.733 111.363 130.96C111.363 130.413 111.523 129.9 111.843 129.42C112.176 128.94 112.669 128.553 113.323 128.26C113.976 127.953 114.789 127.8 115.763 127.8C116.763 127.8 117.629 127.96 118.363 128.28C119.109 128.587 119.696 129.047 120.123 129.66L118.483 131.26C118.189 130.793 117.803 130.44 117.323 130.2C116.856 129.947 116.363 129.82 115.843 129.82C115.469 129.82 115.149 129.86 114.883 129.94C114.616 130.02 114.416 130.133 114.283 130.28C114.149 130.413 114.083 130.587 114.083 130.8C114.083 131.013 114.176 131.2 114.363 131.36C114.549 131.507 114.889 131.633 115.383 131.74L117.423 132.16C118.409 132.36 119.116 132.7 119.543 133.18C119.969 133.647 120.183 134.213 120.183 134.88C120.183 135.52 120.009 136.093 119.663 136.6C119.329 137.093 118.829 137.487 118.163 137.78C117.509 138.06 116.703 138.2 115.743 138.2ZM125.848 138.2C125.181 138.2 124.581 138.08 124.048 137.84C123.514 137.6 123.088 137.22 122.768 136.7C122.461 136.167 122.308 135.48 122.308 134.64V128H125.048V133.98C125.048 134.753 125.208 135.293 125.528 135.6C125.848 135.893 126.308 136.04 126.908 136.04C127.188 136.04 127.461 135.993 127.728 135.9C127.994 135.793 128.228 135.633 128.428 135.42C128.641 135.207 128.808 134.933 128.928 134.6C129.048 134.253 129.108 133.847 129.108 133.38V128H131.848V138H129.408L129.308 136.26C128.974 136.927 128.514 137.42 127.928 137.74C127.354 138.047 126.661 138.2 125.848 138.2ZM137.431 123.62V134.92C137.431 135.387 137.511 135.713 137.671 135.9C137.831 136.087 138.098 136.18 138.471 136.18C138.698 136.18 138.884 136.167 139.031 136.14C139.178 136.1 139.364 136.047 139.591 135.98L139.351 137.78C139.124 137.913 138.838 138.013 138.491 138.08C138.158 138.16 137.824 138.2 137.491 138.2C136.518 138.2 135.804 137.967 135.351 137.5C134.911 137.02 134.691 136.26 134.691 135.22V123.62H137.431ZM144.306 124.94V134.74C144.306 135.22 144.426 135.573 144.666 135.8C144.92 136.013 145.26 136.12 145.686 136.12C146.02 136.12 146.313 136.073 146.566 135.98C146.82 135.873 147.046 135.733 147.246 135.56L147.686 137.38C147.366 137.633 146.966 137.833 146.486 137.98C146.006 138.127 145.5 138.2 144.966 138.2C144.3 138.2 143.706 138.1 143.186 137.9C142.68 137.7 142.28 137.38 141.986 136.94C141.706 136.5 141.566 135.913 141.566 135.18V125.7L144.306 124.94ZM147.506 128V130.04H139.726V128H147.506ZM155.158 131.62C155.158 131.047 154.991 130.6 154.658 130.28C154.338 129.96 153.911 129.8 153.378 129.8C152.884 129.8 152.451 129.927 152.078 130.18C151.704 130.433 151.431 130.853 151.258 131.44L148.918 130.72C149.144 129.84 149.638 129.133 150.398 128.6C151.171 128.067 152.204 127.8 153.498 127.8C154.378 127.8 155.144 127.94 155.798 128.22C156.451 128.487 156.958 128.893 157.318 129.44C157.691 129.987 157.878 130.673 157.878 131.5V135.56C157.878 136.067 158.118 136.32 158.598 136.32C158.824 136.32 159.038 136.287 159.238 136.22L159.078 137.92C158.731 138.093 158.298 138.18 157.778 138.18C157.311 138.18 156.891 138.1 156.518 137.94C156.144 137.78 155.851 137.54 155.638 137.22C155.424 136.887 155.318 136.473 155.318 135.98V135.9L155.798 135.82C155.718 136.327 155.498 136.76 155.138 137.12C154.778 137.467 154.338 137.733 153.818 137.92C153.311 138.107 152.784 138.2 152.238 138.2C151.558 138.2 150.971 138.1 150.478 137.9C149.984 137.687 149.604 137.38 149.338 136.98C149.071 136.58 148.938 136.087 148.938 135.5C148.938 134.753 149.178 134.147 149.658 133.68C150.138 133.2 150.824 132.873 151.718 132.7L155.478 131.94L155.458 133.64L153.058 134.12C152.604 134.213 152.258 134.34 152.018 134.5C151.791 134.647 151.678 134.893 151.678 135.24C151.678 135.573 151.798 135.827 152.038 136C152.291 136.173 152.591 136.26 152.938 136.26C153.218 136.26 153.491 136.227 153.758 136.16C154.024 136.093 154.264 135.987 154.478 135.84C154.691 135.693 154.858 135.493 154.978 135.24C155.098 134.987 155.158 134.68 155.158 134.32V131.62ZM164.091 124.94V134.74C164.091 135.22 164.211 135.573 164.451 135.8C164.705 136.013 165.045 136.12 165.471 136.12C165.805 136.12 166.098 136.073 166.351 135.98C166.605 135.873 166.831 135.733 167.031 135.56L167.471 137.38C167.151 137.633 166.751 137.833 166.271 137.98C165.791 138.127 165.285 138.2 164.751 138.2C164.085 138.2 163.491 138.1 162.971 137.9C162.465 137.7 162.065 137.38 161.771 136.94C161.491 136.5 161.351 135.913 161.351 135.18V125.7L164.091 124.94ZM167.291 128V130.04H159.511V128H167.291ZM170.525 126.56C169.952 126.56 169.525 126.44 169.245 126.2C168.965 125.947 168.825 125.58 168.825 125.1C168.825 124.607 168.965 124.24 169.245 124C169.525 123.747 169.952 123.62 170.525 123.62C171.098 123.62 171.525 123.747 171.805 124C172.085 124.24 172.225 124.607 172.225 125.1C172.225 125.58 172.085 125.947 171.805 126.2C171.525 126.44 171.098 126.56 170.525 126.56ZM171.885 128V138H169.145V128H171.885ZM179.35 127.8C180.363 127.8 181.25 128.007 182.01 128.42C182.783 128.833 183.383 129.427 183.81 130.2C184.25 130.973 184.47 131.907 184.47 133C184.47 134.08 184.25 135.013 183.81 135.8C183.383 136.573 182.783 137.167 182.01 137.58C181.25 137.993 180.363 138.2 179.35 138.2C178.35 138.2 177.463 137.993 176.69 137.58C175.916 137.167 175.31 136.573 174.87 135.8C174.443 135.013 174.23 134.08 174.23 133C174.23 131.907 174.443 130.973 174.87 130.2C175.31 129.427 175.916 128.833 176.69 128.42C177.463 128.007 178.35 127.8 179.35 127.8ZM179.35 129.84C178.843 129.84 178.41 129.96 178.05 130.2C177.703 130.427 177.436 130.773 177.25 131.24C177.063 131.707 176.97 132.293 176.97 133C176.97 133.707 177.063 134.293 177.25 134.76C177.436 135.227 177.703 135.58 178.05 135.82C178.41 136.047 178.843 136.16 179.35 136.16C179.843 136.16 180.263 136.047 180.61 135.82C180.97 135.58 181.243 135.227 181.43 134.76C181.616 134.293 181.71 133.707 181.71 133C181.71 132.293 181.616 131.707 181.43 131.24C181.243 130.773 180.97 130.427 180.61 130.2C180.263 129.96 179.843 129.84 179.35 129.84ZM186.762 138V128H189.222L189.382 131L189.042 130.68C189.202 130.027 189.456 129.487 189.802 129.06C190.149 128.633 190.569 128.32 191.062 128.12C191.569 127.907 192.122 127.8 192.722 127.8C193.416 127.8 194.029 127.933 194.562 128.2C195.109 128.467 195.536 128.873 195.842 129.42C196.162 129.953 196.322 130.627 196.322 131.44V138H193.582V132.22C193.582 131.367 193.416 130.78 193.082 130.46C192.749 130.127 192.316 129.96 191.782 129.96C191.409 129.96 191.042 130.053 190.682 130.24C190.336 130.413 190.049 130.7 189.822 131.1C189.609 131.5 189.502 132.033 189.502 132.7V138H186.762Z" fill="#2947A9"/>
</svg>
