<svg width="270" height="181" viewBox="0 0 270 181" fill="none" xmlns="http://www.w3.org/2000/svg">
<path d="M0 4C0 1.79086 1.79086 0 4 0H266C268.209 0 270 1.79086 270 4V177C270 179.209 268.209 181 266 181H3.99999C1.79086 181 0 179.209 0 177V4Z" fill="#2947A9"/>
<rect x="115" y="54.6667" width="23.3333" height="23.3333" fill="#7595FD"/>
<path d="M150 61.3333C150 60.4167 149.25 59.6667 148.333 59.6667H145V63H148.333C149.25 63 150 62.25 150 61.3333ZM148.333 66.3333H145V69.6667H148.333C149.25 69.6667 150 68.9167 150 68C150 67.0833 149.25 66.3333 148.333 66.3333ZM135 61.3333H131.667V68H135C135 69.8333 136.5 71.3333 138.333 71.3333H143.333V58H138.333C136.5 58 135 59.5 135 61.3333Z" fill="white"/>
<path d="M123.333 59.6667C123.333 57.8334 124.833 56.3334 126.667 56.3334H129.167C132.383 56.3334 135 53.7167 135 50.5001C135 47.2834 132.383 44.6667 129.167 44.6667H123.333C122.417 44.6667 121.667 45.4167 121.667 46.3334C121.667 47.2501 122.417 48.0001 123.333 48.0001H129.167C130.55 48.0001 131.667 49.1167 131.667 50.5001C131.667 51.8834 130.55 53.0001 129.167 53.0001H126.667C122.983 53.0001 120 55.9834 120 59.6667C120 63.3501 122.983 66.3334 126.667 66.3334H130V63.0001H126.667C124.833 63.0001 123.333 61.5001 123.333 59.6667Z" fill="white"/>
<rect x="105" y="98" width="60" height="2" fill="#E0E3EB"/>
<path d="M98.7805 138V124.8H108.681V127.02H101.541V130.3H107.161V132.42H101.541V135.78H108.961V138H98.7805ZM113.857 123.62V134.92C113.857 135.387 113.937 135.713 114.097 135.9C114.257 136.087 114.523 136.18 114.897 136.18C115.123 136.18 115.31 136.167 115.457 136.14C115.603 136.1 115.79 136.047 116.017 135.98L115.777 137.78C115.55 137.913 115.263 138.013 114.917 138.08C114.583 138.16 114.25 138.2 113.917 138.2C112.943 138.2 112.23 137.967 111.777 137.5C111.337 137.02 111.117 136.26 111.117 135.22V123.62H113.857ZM122.184 138.2C121.13 138.2 120.21 137.993 119.424 137.58C118.65 137.167 118.05 136.573 117.624 135.8C117.197 135.027 116.984 134.093 116.984 133C116.984 131.907 117.197 130.973 117.624 130.2C118.05 129.427 118.644 128.833 119.404 128.42C120.177 128.007 121.057 127.8 122.044 127.8C123.057 127.8 123.917 128.007 124.624 128.42C125.33 128.82 125.87 129.373 126.244 130.08C126.617 130.773 126.804 131.567 126.804 132.46C126.804 132.727 126.797 132.98 126.784 133.22C126.77 133.46 126.75 133.673 126.724 133.86H118.744V131.96H125.524L124.204 132.44C124.204 131.6 124.01 130.953 123.624 130.5C123.25 130.047 122.717 129.82 122.024 129.82C121.517 129.82 121.077 129.94 120.704 130.18C120.344 130.42 120.07 130.78 119.884 131.26C119.697 131.727 119.604 132.32 119.604 133.04C119.604 133.747 119.704 134.333 119.904 134.8C120.117 135.253 120.41 135.593 120.784 135.82C121.17 136.047 121.63 136.16 122.164 136.16C122.75 136.16 123.224 136.047 123.584 135.82C123.944 135.593 124.224 135.28 124.424 134.88L126.604 135.72C126.39 136.24 126.064 136.687 125.624 137.06C125.197 137.433 124.684 137.72 124.084 137.92C123.497 138.107 122.864 138.2 122.184 138.2ZM133.666 127.8C134.559 127.8 135.312 127.933 135.926 128.2C136.552 128.453 137.052 128.807 137.426 129.26C137.812 129.7 138.086 130.193 138.246 130.74L135.686 131.66C135.552 131.06 135.326 130.607 135.006 130.3C134.686 129.993 134.252 129.84 133.706 129.84C133.199 129.84 132.766 129.96 132.406 130.2C132.046 130.427 131.772 130.78 131.586 131.26C131.399 131.727 131.306 132.313 131.306 133.02C131.306 133.727 131.399 134.313 131.586 134.78C131.786 135.247 132.066 135.593 132.426 135.82C132.799 136.047 133.232 136.16 133.726 136.16C134.126 136.16 134.466 136.093 134.746 135.96C135.026 135.813 135.252 135.607 135.426 135.34C135.612 135.073 135.739 134.753 135.806 134.38L138.286 135.18C138.139 135.78 137.866 136.307 137.466 136.76C137.066 137.213 136.552 137.567 135.926 137.82C135.299 138.073 134.572 138.2 133.746 138.2C132.719 138.2 131.812 137.993 131.026 137.58C130.239 137.167 129.632 136.573 129.206 135.8C128.779 135.027 128.566 134.093 128.566 133C128.566 131.907 128.779 130.973 129.206 130.2C129.632 129.427 130.232 128.833 131.006 128.42C131.779 128.007 132.666 127.8 133.666 127.8ZM143.955 124.94V134.74C143.955 135.22 144.075 135.573 144.315 135.8C144.568 136.013 144.908 136.12 145.335 136.12C145.668 136.12 145.961 136.073 146.215 135.98C146.468 135.873 146.695 135.733 146.895 135.56L147.335 137.38C147.015 137.633 146.615 137.833 146.135 137.98C145.655 138.127 145.148 138.2 144.615 138.2C143.948 138.2 143.355 138.1 142.835 137.9C142.328 137.7 141.928 137.38 141.635 136.94C141.355 136.5 141.215 135.913 141.215 135.18V125.7L143.955 124.94ZM147.155 128V130.04H139.375V128H147.155ZM149.008 138V128H151.388L151.568 129.96C151.835 129.267 152.222 128.733 152.728 128.36C153.248 127.987 153.895 127.8 154.668 127.8C154.895 127.8 155.102 127.82 155.288 127.86C155.475 127.9 155.628 127.953 155.748 128.02L155.428 130.32C155.295 130.267 155.128 130.227 154.928 130.2C154.742 130.173 154.495 130.16 154.188 130.16C153.788 130.16 153.402 130.26 153.028 130.46C152.655 130.647 152.348 130.94 152.108 131.34C151.868 131.727 151.748 132.22 151.748 132.82V138H149.008ZM158.826 126.56C158.253 126.56 157.826 126.44 157.546 126.2C157.266 125.947 157.126 125.58 157.126 125.1C157.126 124.607 157.266 124.24 157.546 124C157.826 123.747 158.253 123.62 158.826 123.62C159.399 123.62 159.826 123.747 160.106 124C160.386 124.24 160.526 124.607 160.526 125.1C160.526 125.58 160.386 125.947 160.106 126.2C159.826 126.44 159.399 126.56 158.826 126.56ZM160.186 128V138H157.446V128H160.186ZM167.63 127.8C168.524 127.8 169.277 127.933 169.89 128.2C170.517 128.453 171.017 128.807 171.39 129.26C171.777 129.7 172.05 130.193 172.21 130.74L169.65 131.66C169.517 131.06 169.29 130.607 168.97 130.3C168.65 129.993 168.217 129.84 167.67 129.84C167.164 129.84 166.73 129.96 166.37 130.2C166.01 130.427 165.737 130.78 165.55 131.26C165.364 131.727 165.27 132.313 165.27 133.02C165.27 133.727 165.364 134.313 165.55 134.78C165.75 135.247 166.03 135.593 166.39 135.82C166.764 136.047 167.197 136.16 167.69 136.16C168.09 136.16 168.43 136.093 168.71 135.96C168.99 135.813 169.217 135.607 169.39 135.34C169.577 135.073 169.704 134.753 169.77 134.38L172.25 135.18C172.104 135.78 171.83 136.307 171.43 136.76C171.03 137.213 170.517 137.567 169.89 137.82C169.264 138.073 168.537 138.2 167.71 138.2C166.684 138.2 165.777 137.993 164.99 137.58C164.204 137.167 163.597 136.573 163.17 135.8C162.744 135.027 162.53 134.093 162.53 133C162.53 131.907 162.744 130.973 163.17 130.2C163.597 129.427 164.197 128.833 164.97 128.42C165.744 128.007 166.63 127.8 167.63 127.8Z" fill="white"/>
</svg>
