<svg width="271" height="181" viewBox="0 0 271 181" fill="none" xmlns="http://www.w3.org/2000/svg">
<path d="M0 4C0 1.79086 1.79086 0 4 0H267C269.209 0 271 1.79086 271 4V177C271 179.209 269.209 181 267 181H4C1.79086 181 0 179.209 0 177V4Z" fill="white"/>
<g clip-path="url(#clip0_27_93)">
<rect x="115.5" y="54.6666" width="23.3333" height="23.3333" fill="#7595FD"/>
<path d="M147.152 41.3334H130.517C128.665 41.3334 127.167 42.8317 127.167 44.6834V54.0784L119.33 61.815C119.095 62.0473 118.935 62.344 118.869 62.6676C118.803 62.9913 118.835 63.3271 118.96 63.6327C119.085 63.9382 119.299 64.1996 119.573 64.3837C119.847 64.5678 120.17 64.6663 120.5 64.6667V73C120.5 73.4421 120.676 73.866 120.988 74.1786C121.301 74.4911 121.725 74.6667 122.167 74.6667H148.833C149.275 74.6667 149.699 74.4911 150.012 74.1786C150.324 73.866 150.5 73.4421 150.5 73V44.6817C150.5 42.8317 149.003 41.3334 147.152 41.3334ZM133.703 63.185V71.3334H123.833V62.0534L128.812 57.1384L133.703 62.1434V63.185V63.185ZM137.167 53H133.833V49.6667H137.167V53ZM143.833 66.3334H140.5V63H143.833V66.3334ZM143.833 59.6667H140.5V56.3334H143.833V59.6667ZM143.833 53H140.5V49.6667H143.833V53Z" fill="#292E3D"/>
<path d="M127.167 63H130.5V66.3333H127.167V63Z" fill="#14171F"/>
</g>
<rect x="105.5" y="98" width="60" height="2" fill="#E0E3EB"/>
<path d="M84.5649 134.36C84.3116 135.213 83.9116 135.927 83.3649 136.5C82.8183 137.073 82.1716 137.5 81.4249 137.78C80.6783 138.06 79.8583 138.2 78.9649 138.2C77.6583 138.2 76.5249 137.927 75.5649 137.38C74.6183 136.833 73.8849 136.053 73.3649 135.04C72.8583 134.027 72.6049 132.813 72.6049 131.4C72.6049 129.987 72.8583 128.773 73.3649 127.76C73.8849 126.747 74.6183 125.967 75.5649 125.42C76.5249 124.873 77.6449 124.6 78.9249 124.6C79.8316 124.6 80.6516 124.727 81.3849 124.98C82.1183 125.22 82.7383 125.593 83.2449 126.1C83.7649 126.607 84.1449 127.247 84.3849 128.02L81.8849 129.08C81.6583 128.28 81.3116 127.713 80.8449 127.38C80.3783 127.033 79.7783 126.86 79.0449 126.86C78.3249 126.86 77.6916 127.033 77.1449 127.38C76.6116 127.727 76.1983 128.24 75.9049 128.92C75.6116 129.587 75.4649 130.413 75.4649 131.4C75.4649 132.373 75.5983 133.2 75.8649 133.88C76.1449 134.56 76.5516 135.073 77.0849 135.42C77.6183 135.767 78.2716 135.94 79.0449 135.94C79.7649 135.94 80.3849 135.747 80.9049 135.36C81.4383 134.973 81.8116 134.387 82.0249 133.6L84.5649 134.36ZM91.1973 127.8C92.2106 127.8 93.0973 128.007 93.8573 128.42C94.6306 128.833 95.2306 129.427 95.6573 130.2C96.0973 130.973 96.3173 131.907 96.3173 133C96.3173 134.08 96.0973 135.013 95.6573 135.8C95.2306 136.573 94.6306 137.167 93.8573 137.58C93.0973 137.993 92.2106 138.2 91.1973 138.2C90.1973 138.2 89.3106 137.993 88.5373 137.58C87.7639 137.167 87.1573 136.573 86.7173 135.8C86.2906 135.013 86.0773 134.08 86.0773 133C86.0773 131.907 86.2906 130.973 86.7173 130.2C87.1573 129.427 87.7639 128.833 88.5373 128.42C89.3106 128.007 90.1973 127.8 91.1973 127.8ZM91.1973 129.84C90.6906 129.84 90.2573 129.96 89.8973 130.2C89.5506 130.427 89.2839 130.773 89.0973 131.24C88.9106 131.707 88.8173 132.293 88.8173 133C88.8173 133.707 88.9106 134.293 89.0973 134.76C89.2839 135.227 89.5506 135.58 89.8973 135.82C90.2573 136.047 90.6906 136.16 91.1973 136.16C91.6906 136.16 92.1106 136.047 92.4573 135.82C92.8173 135.58 93.0906 135.227 93.2773 134.76C93.4639 134.293 93.5573 133.707 93.5573 133C93.5573 132.293 93.4639 131.707 93.2773 131.24C93.0906 130.773 92.8173 130.427 92.4573 130.2C92.1106 129.96 91.6906 129.84 91.1973 129.84ZM98.6099 138V128H101.07L101.23 131L100.89 130.68C101.05 130.027 101.303 129.487 101.65 129.06C101.997 128.633 102.417 128.32 102.91 128.12C103.417 127.907 103.97 127.8 104.57 127.8C105.263 127.8 105.877 127.933 106.41 128.2C106.957 128.467 107.383 128.873 107.69 129.42C108.01 129.953 108.17 130.627 108.17 131.44V138H105.43V132.22C105.43 131.367 105.263 130.78 104.93 130.46C104.597 130.127 104.163 129.96 103.63 129.96C103.257 129.96 102.89 130.053 102.53 130.24C102.183 130.413 101.897 130.7 101.67 131.1C101.457 131.5 101.35 132.033 101.35 132.7V138H98.6099ZM114.993 138.2C113.979 138.2 113.053 138.02 112.213 137.66C111.386 137.3 110.713 136.793 110.193 136.14L111.773 134.54C112.093 135.02 112.519 135.413 113.053 135.72C113.586 136.027 114.219 136.18 114.953 136.18C115.473 136.18 115.886 136.107 116.193 135.96C116.513 135.8 116.673 135.553 116.673 135.22C116.673 135.007 116.599 134.827 116.453 134.68C116.306 134.52 116.013 134.393 115.573 134.3L113.813 133.94C112.653 133.7 111.826 133.34 111.333 132.86C110.853 132.367 110.613 131.733 110.613 130.96C110.613 130.413 110.773 129.9 111.093 129.42C111.426 128.94 111.919 128.553 112.573 128.26C113.226 127.953 114.039 127.8 115.013 127.8C116.013 127.8 116.879 127.96 117.613 128.28C118.359 128.587 118.946 129.047 119.373 129.66L117.733 131.26C117.439 130.793 117.053 130.44 116.573 130.2C116.106 129.947 115.613 129.82 115.093 129.82C114.719 129.82 114.399 129.86 114.133 129.94C113.866 130.02 113.666 130.133 113.533 130.28C113.399 130.413 113.333 130.587 113.333 130.8C113.333 131.013 113.426 131.2 113.613 131.36C113.799 131.507 114.139 131.633 114.633 131.74L116.673 132.16C117.659 132.36 118.366 132.7 118.793 133.18C119.219 133.647 119.433 134.213 119.433 134.88C119.433 135.52 119.259 136.093 118.913 136.6C118.579 137.093 118.079 137.487 117.413 137.78C116.759 138.06 115.953 138.2 114.993 138.2ZM125.158 124.94V134.74C125.158 135.22 125.278 135.573 125.518 135.8C125.771 136.013 126.111 136.12 126.538 136.12C126.871 136.12 127.164 136.073 127.418 135.98C127.671 135.873 127.898 135.733 128.098 135.56L128.538 137.38C128.218 137.633 127.818 137.833 127.338 137.98C126.858 138.127 126.351 138.2 125.818 138.2C125.151 138.2 124.558 138.1 124.038 137.9C123.531 137.7 123.131 137.38 122.838 136.94C122.558 136.5 122.418 135.913 122.418 135.18V125.7L125.158 124.94ZM128.358 128V130.04H120.578V128H128.358ZM130.211 138V128H132.591L132.771 129.96C133.038 129.267 133.425 128.733 133.931 128.36C134.451 127.987 135.098 127.8 135.871 127.8C136.098 127.8 136.305 127.82 136.491 127.86C136.678 127.9 136.831 127.953 136.951 128.02L136.631 130.32C136.498 130.267 136.331 130.227 136.131 130.2C135.945 130.173 135.698 130.16 135.391 130.16C134.991 130.16 134.605 130.26 134.231 130.46C133.858 130.647 133.551 130.94 133.311 131.34C133.071 131.727 132.951 132.22 132.951 132.82V138H130.211ZM142.129 138.2C141.462 138.2 140.862 138.08 140.329 137.84C139.796 137.6 139.369 137.22 139.049 136.7C138.742 136.167 138.589 135.48 138.589 134.64V128H141.329V133.98C141.329 134.753 141.489 135.293 141.809 135.6C142.129 135.893 142.589 136.04 143.189 136.04C143.469 136.04 143.742 135.993 144.009 135.9C144.276 135.793 144.509 135.633 144.709 135.42C144.922 135.207 145.089 134.933 145.209 134.6C145.329 134.253 145.389 133.847 145.389 133.38V128H148.129V138H145.689L145.589 136.26C145.256 136.927 144.796 137.42 144.209 137.74C143.636 138.047 142.942 138.2 142.129 138.2ZM155.552 127.8C156.446 127.8 157.199 127.933 157.812 128.2C158.439 128.453 158.939 128.807 159.312 129.26C159.699 129.7 159.972 130.193 160.132 130.74L157.572 131.66C157.439 131.06 157.212 130.607 156.892 130.3C156.572 129.993 156.139 129.84 155.592 129.84C155.086 129.84 154.652 129.96 154.292 130.2C153.932 130.427 153.659 130.78 153.472 131.26C153.286 131.727 153.192 132.313 153.192 133.02C153.192 133.727 153.286 134.313 153.472 134.78C153.672 135.247 153.952 135.593 154.312 135.82C154.686 136.047 155.119 136.16 155.612 136.16C156.012 136.16 156.352 136.093 156.632 135.96C156.912 135.813 157.139 135.607 157.312 135.34C157.499 135.073 157.626 134.753 157.692 134.38L160.172 135.18C160.026 135.78 159.752 136.307 159.352 136.76C158.952 137.213 158.439 137.567 157.812 137.82C157.186 138.073 156.459 138.2 155.632 138.2C154.606 138.2 153.699 137.993 152.912 137.58C152.126 137.167 151.519 136.573 151.092 135.8C150.666 135.027 150.452 134.093 150.452 133C150.452 131.907 150.666 130.973 151.092 130.2C151.519 129.427 152.119 128.833 152.892 128.42C153.666 128.007 154.552 127.8 155.552 127.8ZM165.841 124.94V134.74C165.841 135.22 165.961 135.573 166.201 135.8C166.455 136.013 166.795 136.12 167.221 136.12C167.555 136.12 167.848 136.073 168.101 135.98C168.355 135.873 168.581 135.733 168.781 135.56L169.221 137.38C168.901 137.633 168.501 137.833 168.021 137.98C167.541 138.127 167.035 138.2 166.501 138.2C165.835 138.2 165.241 138.1 164.721 137.9C164.215 137.7 163.815 137.38 163.521 136.94C163.241 136.5 163.101 135.913 163.101 135.18V125.7L165.841 124.94ZM169.041 128V130.04H161.261V128H169.041ZM172.275 126.56C171.702 126.56 171.275 126.44 170.995 126.2C170.715 125.947 170.575 125.58 170.575 125.1C170.575 124.607 170.715 124.24 170.995 124C171.275 123.747 171.702 123.62 172.275 123.62C172.848 123.62 173.275 123.747 173.555 124C173.835 124.24 173.975 124.607 173.975 125.1C173.975 125.58 173.835 125.947 173.555 126.2C173.275 126.44 172.848 126.56 172.275 126.56ZM173.635 128V138H170.895V128H173.635ZM181.1 127.8C182.113 127.8 183 128.007 183.76 128.42C184.533 128.833 185.133 129.427 185.56 130.2C186 130.973 186.22 131.907 186.22 133C186.22 134.08 186 135.013 185.56 135.8C185.133 136.573 184.533 137.167 183.76 137.58C183 137.993 182.113 138.2 181.1 138.2C180.1 138.2 179.213 137.993 178.44 137.58C177.666 137.167 177.06 136.573 176.62 135.8C176.193 135.013 175.98 134.08 175.98 133C175.98 131.907 176.193 130.973 176.62 130.2C177.06 129.427 177.666 128.833 178.44 128.42C179.213 128.007 180.1 127.8 181.1 127.8ZM181.1 129.84C180.593 129.84 180.16 129.96 179.8 130.2C179.453 130.427 179.186 130.773 179 131.24C178.813 131.707 178.72 132.293 178.72 133C178.72 133.707 178.813 134.293 179 134.76C179.186 135.227 179.453 135.58 179.8 135.82C180.16 136.047 180.593 136.16 181.1 136.16C181.593 136.16 182.013 136.047 182.36 135.82C182.72 135.58 182.993 135.227 183.18 134.76C183.366 134.293 183.46 133.707 183.46 133C183.46 132.293 183.366 131.707 183.18 131.24C182.993 130.773 182.72 130.427 182.36 130.2C182.013 129.96 181.593 129.84 181.1 129.84ZM188.512 138V128H190.972L191.132 131L190.792 130.68C190.952 130.027 191.206 129.487 191.552 129.06C191.899 128.633 192.319 128.32 192.812 128.12C193.319 127.907 193.872 127.8 194.472 127.8C195.166 127.8 195.779 127.933 196.312 128.2C196.859 128.467 197.286 128.873 197.592 129.42C197.912 129.953 198.072 130.627 198.072 131.44V138H195.332V132.22C195.332 131.367 195.166 130.78 194.832 130.46C194.499 130.127 194.066 129.96 193.532 129.96C193.159 129.96 192.792 130.053 192.432 130.24C192.086 130.413 191.799 130.7 191.572 131.1C191.359 131.5 191.252 132.033 191.252 132.7V138H188.512Z" fill="#2947A9"/>
<defs>
<clipPath id="clip0_27_93">
<rect width="40" height="40" fill="white" transform="translate(115.5 38)"/>
</clipPath>
</defs>
</svg>
