<svg width="32" height="8" viewBox="0 0 32 8" fill="none" xmlns="http://www.w3.org/2000/svg">
<path d="M15.2529 6L15.2529 1.23152L16.9508 1.23152C17.5143 1.23152 17.9261 1.34953 18.1862 1.58555C18.4463 1.82156 18.5764 2.14187 18.5764 2.54647C18.5764 2.7873 18.5065 3.00646 18.3669 3.20394C18.2272 3.3966 18.0297 3.51943 17.7744 3.57241L17.7744 3.57964C18.0586 3.63262 18.2826 3.76267 18.4463 3.96978C18.6149 4.17208 18.6992 4.40328 18.6992 4.66338C18.6992 5.06798 18.5475 5.3931 18.244 5.63875C17.9406 5.87958 17.5071 6 16.9435 6L15.2529 6ZM15.8309 5.45813L17.0808 5.45813C17.4228 5.45813 17.6757 5.38829 17.8394 5.2486C18.008 5.10892 18.0923 4.91385 18.0923 4.66338C18.0923 4.4081 18.008 4.21302 17.8394 4.07816C17.6757 3.93848 17.4228 3.86863 17.0808 3.86863L15.8309 3.86863L15.8309 5.45813ZM15.8309 3.32676L16.958 3.32676C17.6323 3.32676 17.9695 3.06666 17.9695 2.54647C17.9695 2.03109 17.6323 1.77339 16.958 1.77339L15.8309 1.77339L15.8309 3.32676ZM21.9744 3.66634C21.9744 3.3966 21.9022 3.18949 21.7577 3.04499C21.6132 2.89567 21.4085 2.82101 21.1436 2.82101C20.8931 2.82101 20.6812 2.87641 20.5078 2.98719C20.3344 3.09316 20.2067 3.26655 20.1248 3.50739L19.6552 3.21839C19.7516 2.94866 19.9298 2.73191 20.1899 2.56814C20.45 2.39956 20.7727 2.31527 21.158 2.31527C21.4181 2.31527 21.6541 2.36102 21.8661 2.45254C22.078 2.53924 22.2442 2.67411 22.3646 2.85714C22.4898 3.03536 22.5524 3.26655 22.5524 3.55074L22.5524 5.29918C22.5524 5.47258 22.644 5.55928 22.827 5.55928C22.9185 5.55928 23.0076 5.54724 23.0943 5.52315L23.0654 5.97832C22.9691 6.02649 22.8438 6.05057 22.6897 6.05057C22.55 6.05057 22.4248 6.02408 22.314 5.9711C22.2032 5.91812 22.1165 5.83864 22.0539 5.73268C21.9913 5.62189 21.96 5.48462 21.96 5.32085L21.96 5.2486L22.1045 5.27028C22.0467 5.45813 21.9479 5.61226 21.8083 5.73268C21.6686 5.84828 21.512 5.93498 21.3386 5.99277C21.1652 6.04576 20.9943 6.07225 20.8257 6.07225C20.6137 6.07225 20.4163 6.03612 20.2332 5.96388C20.0502 5.89163 19.9033 5.78325 19.7925 5.63875C19.6865 5.48944 19.6336 5.3064 19.6336 5.08965C19.6336 4.81992 19.7227 4.59836 19.9009 4.42496C20.0839 4.24674 20.3368 4.12633 20.6595 4.06371L22.09 3.78194L22.09 4.25878L20.9268 4.49721C20.6908 4.54537 20.515 4.61281 20.3994 4.69951C20.2838 4.78621 20.226 4.90662 20.226 5.06075C20.226 5.21007 20.2838 5.33289 20.3994 5.42923C20.5198 5.52074 20.6884 5.5665 20.9051 5.5665C21.0448 5.5665 21.1773 5.54964 21.3025 5.51593C21.4326 5.47739 21.5482 5.422 21.6493 5.34975C21.7505 5.27269 21.8299 5.17876 21.8877 5.06798C21.9455 4.95238 21.9744 4.81751 21.9744 4.66338L21.9744 3.66634ZM25.4526 2.31527C25.703 2.31527 25.9222 2.3538 26.1101 2.43087C26.3027 2.50793 26.4689 2.61872 26.6086 2.76321C26.7483 2.90771 26.8615 3.07871 26.9482 3.27619L26.3991 3.53629C26.322 3.30509 26.204 3.12928 26.045 3.00886C25.8909 2.88363 25.6886 2.82101 25.4381 2.82101C25.1973 2.82101 24.9902 2.87641 24.8168 2.98719C24.6434 3.09316 24.5109 3.2497 24.4194 3.45681C24.3279 3.65911 24.2821 3.90476 24.2821 4.19376C24.2821 4.47794 24.3279 4.72359 24.4194 4.9307C24.5109 5.13782 24.6434 5.29677 24.8168 5.40755C24.9902 5.51352 25.1973 5.5665 25.4381 5.5665C25.626 5.5665 25.7873 5.5376 25.9222 5.4798C26.0619 5.422 26.1751 5.33771 26.2618 5.22693C26.3533 5.11615 26.4159 4.98128 26.4496 4.82233L26.9843 5.01018C26.9024 5.23174 26.7892 5.422 26.6447 5.58095C26.505 5.7399 26.334 5.86273 26.1317 5.94943C25.9342 6.03131 25.7079 6.07225 25.4526 6.07225C25.1154 6.07225 24.8144 5.99759 24.5495 5.84828C24.2845 5.69896 24.0774 5.48462 23.9281 5.20525C23.7788 4.92107 23.7041 4.58391 23.7041 4.19376C23.7041 3.80361 23.7788 3.46885 23.9281 3.18949C24.0774 2.90531 24.2845 2.68856 24.5495 2.53924C24.8144 2.38992 25.1154 2.31527 25.4526 2.31527ZM31.1717 2.38752L29.6111 3.94811L29.4738 4.08538L28.2889 5.27028L28.2889 4.54778L30.4419 2.38752L31.1717 2.38752ZM28.5779 0.725774L28.5779 6L27.9999 6L27.9999 0.725774L28.5779 0.725774ZM29.6616 3.65189L31.2584 6L30.5575 6L29.1776 3.97701L29.6616 3.65189Z" fill="white"/>
<path fill-rule="evenodd" clip-rule="evenodd" d="M10.4361 3.99998C10.4361 3.89946 10.3968 3.80305 10.3269 3.73197C10.257 3.66088 10.1622 3.62095 10.0634 3.62095L1.27304 3.62095L3.61877 1.23607C3.65342 1.20082 3.68091 1.15899 3.69966 1.11294C3.71841 1.0669 3.72806 1.01755 3.72806 0.967709C3.72806 0.917871 3.71841 0.86852 3.69966 0.822476C3.68091 0.776431 3.65342 0.734594 3.61877 0.699353C3.58412 0.664111 3.54298 0.636157 3.4977 0.617084C3.45243 0.598012 3.4039 0.588196 3.3549 0.588196C3.3059 0.588196 3.25737 0.598012 3.2121 0.617084C3.16682 0.636157 3.12569 0.664111 3.09103 0.699353L0.109492 3.73163C0.0747849 3.76684 0.0472482 3.80866 0.0284597 3.85471C0.00967114 3.90076 -8.43088e-08 3.95013 -8.55591e-08 3.99998C-8.68094e-08 4.04984 0.00967114 4.09921 0.0284597 4.14526C0.0472482 4.19131 0.0747848 4.23313 0.109492 4.26834L3.09103 7.30062C3.12569 7.33586 3.16682 7.36381 3.2121 7.38289C3.25737 7.40196 3.3059 7.41177 3.3549 7.41177C3.4039 7.41177 3.45243 7.40196 3.4977 7.38289C3.54298 7.36381 3.58412 7.33586 3.61877 7.30062C3.65342 7.26538 3.68091 7.22354 3.69966 7.17749C3.71841 7.13145 3.72806 7.0821 3.72806 7.03226C3.72806 6.98242 3.71841 6.93307 3.69966 6.88703C3.68091 6.84098 3.65342 6.79915 3.61877 6.7639L1.27304 4.37902L10.0634 4.37902C10.1622 4.37902 10.257 4.33909 10.3269 4.268C10.3968 4.19692 10.4361 4.10051 10.4361 3.99998Z" fill="white"/>
</svg>
