<svg width="32" height="8" viewBox="0 0 32 8" fill="none" xmlns="http://www.w3.org/2000/svg">
<path fill-rule="evenodd" clip-rule="evenodd" d="M21.0139 4.00001C21.0139 4.10054 21.0532 4.19695 21.123 4.26803C21.1929 4.33911 21.2877 4.37905 21.3866 4.37905L30.1769 4.37905L27.8312 6.76393C27.7965 6.79918 27.769 6.84101 27.7503 6.88706C27.7315 6.9331 27.7219 6.98245 27.7219 7.03229C27.7219 7.08213 27.7315 7.13148 27.7503 7.17752C27.769 7.22357 27.7965 7.26541 27.8312 7.30065C27.8658 7.33589 27.907 7.36384 27.9522 7.38292C27.9975 7.40199 28.046 7.4118 28.0951 7.4118C28.1441 7.4118 28.1926 7.40199 28.2379 7.38292C28.2831 7.36384 28.3243 7.33589 28.3589 7.30065L31.3405 4.26837C31.3752 4.23316 31.4027 4.19134 31.4215 4.14529C31.4403 4.09924 31.45 4.04987 31.45 4.00002C31.45 3.95016 31.4403 3.90079 31.4215 3.85474C31.4027 3.80869 31.3752 3.76687 31.3405 3.73166L28.3589 0.699383C28.3243 0.664141 28.2831 0.636187 28.2379 0.617114C28.1926 0.598042 28.1441 0.588226 28.0951 0.588226C28.046 0.588226 27.9975 0.598042 27.9522 0.617114C27.907 0.636187 27.8658 0.664141 27.8312 0.699383C27.7965 0.734624 27.769 0.77646 27.7503 0.822505C27.7315 0.86855 27.7219 0.9179 27.7219 0.967738C27.7219 1.01758 27.7315 1.06693 27.7503 1.11297C27.769 1.15902 27.7965 1.20085 27.8312 1.2361L30.1769 3.62098L21.3866 3.62098C21.2877 3.62098 21.1929 3.66091 21.123 3.732C21.0532 3.80308 21.0139 3.89949 21.0139 4.00001Z" fill="white"/>
<path d="M4.9406 1.23152L4.9406 6L4.22533 6L2.23124 2.80656L1.72549 1.91067L1.71827 1.91067L1.74717 2.63317L1.74717 6L1.19807 6L1.19807 1.23152L1.91334 1.23152L3.90021 4.41051L4.41318 5.32808L4.42041 5.32808L4.39151 4.59836L4.39151 1.23152L4.9406 1.23152ZM7.8491 6.07225C7.50712 6.07225 7.20127 5.99759 6.93153 5.84828C6.66662 5.69896 6.4595 5.48462 6.31019 5.20525C6.16087 4.92107 6.08621 4.58391 6.08621 4.19376C6.08621 3.80361 6.16087 3.46885 6.31019 3.18949C6.4595 2.90531 6.66421 2.68856 6.92431 2.53924C7.18441 2.38992 7.48063 2.31527 7.81298 2.31527C8.15014 2.31527 8.43673 2.38752 8.67275 2.53202C8.91358 2.67652 9.09662 2.874 9.22185 3.12446C9.34708 3.37011 9.4097 3.64707 9.4097 3.95533C9.4097 4.03722 9.40729 4.11188 9.40247 4.17931C9.39766 4.24674 9.39043 4.30695 9.3808 4.35993L6.46191 4.35993L6.46191 3.84696L9.12792 3.84696L8.8317 3.90476C8.8317 3.55796 8.73537 3.29064 8.5427 3.10279C8.35485 2.91494 8.10679 2.82101 7.79853 2.82101C7.56251 2.82101 7.35781 2.87641 7.18441 2.98719C7.01582 3.09316 6.88337 3.2497 6.78703 3.45681C6.69552 3.65911 6.64976 3.90476 6.64976 4.19376C6.64976 4.47794 6.69793 4.72359 6.79426 4.93071C6.89059 5.13782 7.02546 5.29677 7.19886 5.40755C7.37707 5.51352 7.58901 5.5665 7.83465 5.5665C8.09957 5.5665 8.31391 5.51593 8.47768 5.41478C8.64626 5.31363 8.78112 5.17635 8.88227 5.00295L9.33745 5.27028C9.24593 5.43404 9.12792 5.57614 8.98342 5.69655C8.84374 5.81697 8.67757 5.91089 8.4849 5.97833C8.29705 6.04094 8.08512 6.07225 7.8491 6.07225ZM10.7217 2.38752L11.7982 3.89753L11.8343 3.94811L13.3155 6L12.6074 6L11.4876 4.43218L11.4225 4.35271L9.99921 2.38752L10.7217 2.38752ZM13.2938 2.38752L11.8632 4.31658L11.8271 4.31658L10.5844 6L9.91251 6L11.4876 3.92643L11.5309 3.92643L12.6146 2.38752L13.2938 2.38752ZM15.0798 1.36157L15.0798 5.00295C15.0798 5.18117 15.1304 5.31363 15.2316 5.40033C15.3327 5.48703 15.4628 5.53038 15.6217 5.53038C15.7614 5.53038 15.8818 5.50629 15.9829 5.45813C16.0841 5.40996 16.1756 5.34494 16.2575 5.26305L16.4598 5.74713C16.349 5.84828 16.2166 5.92775 16.0624 5.98555C15.9131 6.04335 15.7397 6.07225 15.5422 6.07225C15.3592 6.07225 15.1882 6.04094 15.0293 5.97833C14.8703 5.91089 14.7427 5.80733 14.6463 5.66765C14.5548 5.52315 14.5066 5.3353 14.5018 5.1041L14.5018 1.52052L15.0798 1.36157ZM16.3948 2.38752L16.3948 2.88604L13.7793 2.88604L13.7793 2.38752L16.3948 2.38752Z" fill="white"/>
</svg>
